<svg xmlns="http://www.w3.org/2000/svg" viewBox="0 0 1272 1272"><defs><style>.cls-1{fill:#111111;}</style></defs><title>Recurso 6</title><g id="Capa_2" data-name="Capa 2"><g id="Capa_1-2" data-name="Capa 1"><path class="cls-1" d="M0,0V1272H1272V0ZM1002.9,1043.32,635.45,1145.19,269,1043.47,187.37,127.59h897.26Z"/><path class="cls-1" d="M636,202.19V202H269.24l69.85,782.53L636,1066.85v.18l296.91-82.31,69.85-782.53ZM914.9,336.35,887.3,645.81h-.14L868,860.21l-1.69,19L637,942.73v.11l-.51.15-.21-.06L636,943v-.14L406.37,879.11,390.63,702.74H503.39l8,89.59,124.9,33.73,125-33.74,13.16-146.51H513l-2.24-25.14-5.1-56.73-2.68-30H784.39l10.25-114.84H365.75l-2.24-25.15-5.1-56.72-2.67-30H636v-1H917.59Z"/></g></g></svg>