<svg xmlns="http://www.w3.org/2000/svg" viewBox="0 0 1087.3 924.33"><defs><style>.cls-1{fill:#e83a64;}.cls-2{fill:#75519c;}.cls-3{fill:#57c0db;}.cls-4{fill:#020202;}.cls-5{fill:#111110;}.cls-6{fill:#fff;}.cls-7{fill:#a9a9a9;}.cls-8{fill:#828282;}.cls-9{fill:#3d3d3d;}.cls-10{fill:#e0e0e0;}.cls-11{fill:#969696;}.cls-12{fill:#47ad3b;}.cls-13{fill:#e84a11;}.cls-14{fill:#3daa35;}.cls-15{fill:#3b3a8f;}.cls-16{fill:#dc9b0b;}.cls-17{fill:#ca1517;}.cls-18{fill:#2a160d;}.cls-19{fill:#642f0e;}.cls-20{fill:#af191f;}.cls-21{fill:#c0850f;}.cls-22{fill:#cc4117;}.cls-23{fill:#308a36;}.cls-24{opacity:0.43;}</style></defs><title>diseñar1</title><g id="Capa_2" data-name="Capa 2"><g id="Capa_6" data-name="Capa 6"><path class="cls-1" d="M278.14,375.54c-4,3.17-4.64,7.49-4,12.19a30.15,30.15,0,0,0,4.16,12.18c1.91,3.12,3.31,6.56,2.65,10.21-1,5.51-5.5,9.12-11.19,9.59-8.73.72-14-6.28-11.37-15.21a17.79,17.79,0,0,0-.26-12c-1.48-3.69-4.29-6.07-8.23-6-8.72.11-15.23-4.17-21.37-9.66-3.69-3.3-7.57-6.44-12.57-7.69-7.08-1.75-12.93.71-18.32,5.08a41.65,41.65,0,0,1-9.47,6.27,23,23,0,0,1-6.21,1.78c-6.24.77-10.17-2.2-12.85-7.39-1.66-3.21-3.15-6.51-4.77-9.73-4.09-8.11-10.56-12.79-19.7-13.71-8.3-.83-16.55-1.16-23.58,4.37a36,36,0,0,0-9.13,10.48h0c-3.32,3.25-4.8,7.55-6.44,11.72-2.68,6.82-5.17,13.71-10.24,19.24a32.27,32.27,0,0,1-11.29,8.21c-8.61,3.64-17.33-.43-21.41-5.92-6-8-5.83-17.35.16-24.18a48.3,48.3,0,0,1,19.46-13.83c11.89-4.38,19.81-12.86,25.86-23.5a10.57,10.57,0,0,0-8-15.85c-4-.49-8.14-.9-11.9-2.5-8-3.4-10.8-12.25-6.58-20.29,1.72-3.28,3.53-6.52,5.14-9.85,2.89-6,2.5-11.67-1.62-17.06-2.53-3.32-5.9-4.23-9.8-3.85a40.46,40.46,0,0,0-8.14,2.05c-5.09,1.62-9.19.42-11.79-3.41-3.1-4.55-3.21-10.75-.14-14.46a11.09,11.09,0,0,1,8.33-3.76c3.25-.18,6.51,0,9.77-.1a11,11,0,0,0,8.1-3.8c3.22-3.58,3.44-8.58,0-11.89-3.06-2.92-6.51-5.44-9.77-8.16-7.27-6.06-7.68-18.12,1-23.51s10-13.72,8.63-23c-.79-5.3-2.5-10.23-6.2-14.18-4.47-4.75-10.61-5.64-16.63-6.19-6.57-.61-13.25-.24-19.61-2.31-9-2.93-15.62-7.92-16.59-17.5-1.31-13,10.95-24.85,23.61-22.44,7.22,1.38,12.7,5.83,17.22,11.51,3.36,4.23,5.74,9.28,10.18,12.62,6.88,5.19,14.26,7.44,22.47,3.12a10.53,10.53,0,0,0,5.65-7.21c1.7-7.17,3.87-14.18,9.17-19.65,4.11-4.24,8.67-7.46,15.09-7.28a74.67,74.67,0,0,1,12,1.55c7.6,1.45,11.46-1.73,11.6-9.41a69.78,69.78,0,0,0-.49-8.67c-.41-3.78-1-7.55-.65-11.37.36-3.5,1.16-6.82,4.38-8.9,3.43-2.23,10.08-1.71,13.14,1.26s5.72,6,8.51,9.09c6.51,7.14,17.37,5.53,23.54,1.84,3-1.78,5.43-4.2,8.2-6.22,7.95-5.79,16.12-5.21,22,2.6,8.79,11.73,20.19,13.89,33.53,10.86A46.6,46.6,0,0,0,278,84.87c6.32-4.4,8.67-11.07,10.12-18.22,1.29-6.37,2.05-12.84,3.87-19.12,3.89-13.43,17.74-16.57,27.67-11.8,10.32,5,12.88,16,6.36,26.71-3.74,6.14-9,10.82-14.24,15.51-5,4.45-9.32,9.17-10.78,16.1-2.4,11.39,4.08,20.16,15.68,20.64a79.47,79.47,0,0,1,12.42,1.16c8.69,1.75,14.63,8.66,15.6,17.79.42,4,.88,7.91,1.5,11.84,1.76,11.28,13.88,17.77,23.83,12.86a16.78,16.78,0,0,0,4-3.19c3-2.78,5.94-5.38,10.41-5.76,6.54-.56,10.93,6.26,11.4,10.58a22.66,22.66,0,0,1,.21,4.72c-.6,6.18-4.24,9.3-10.75,9.9-4.26.39-8.56.26-12.71,2.1-10,4.44-10.8,15.74-1.25,21.75a44.18,44.18,0,0,1,7.87,5.76c5.92,5.89,6.37,12.86,3.69,20.32-1.82,5-4.88,9.46-7.36,14.16A18.36,18.36,0,0,0,374,252.86c1.25,4.34,5.38,7,11.15,7.57a50.21,50.21,0,0,0,25.18-3.61c6-2.51,12.07-4.7,18.77-4.74,15-.1,25.07,12.74,21,27-2.1,7.45-8.77,12.44-17.67,13.39-9.09,1-17.3-1.93-25.42-5.45-10.78-4.66-21.83-5.46-33-1.68a24,24,0,0,0-16.36,22.42,45.07,45.07,0,0,0,.16,6.78c.59,4.44-.11,8.46-3,12-3.14,1.36-5.93,3.45-9.33,4.25a5.92,5.92,0,0,0-1.74,1.17l-.19,0-.13.14c-1.73.16-2.42,1.52-3.19,2.78a2.32,2.32,0,0,0,0,3.27,2.73,2.73,0,0,0,1,2.2c.84,1.49,1.72,3,2.5,4.48,3.38,6.6,3,10.62-3.51,16-.35.29-.72.55-1.09.82l-3.82,2.05-.52.14a8.8,8.8,0,0,1-9.08-1.56c-1.49-1.2-2.6-2.72-3.94-4-2.06-2-4.36-4.08-7.47-3a13,13,0,0,0-7.7,6.33l-1.45,2.62c-1.59,1.51-2.61,3.48-4.47,4.8-3.47,2.47-7.31,2.79-11.31,2.38C285,370.88,281.07,371.86,278.14,375.54Z"/><path class="cls-1" d="M364.16,365.79c9.41.51,17.53,3.43,22.08,12.51,2.93,5.84,2.39,11.52-2.12,16.3C373.33,406,360,405.08,351.34,392c-3.11-4.69-4.8-9.86-4.11-15.64.53-4.48,3.17-7.16,7.09-8.81A21.44,21.44,0,0,1,364.16,365.79Z"/><path class="cls-1" d="M14.63,190.84A19.56,19.56,0,0,1,25,193.27c6.75,3.67,7.61,10.67,1.8,15.56a23.22,23.22,0,0,1-15.92,5.81C5.29,214.48,1,210.15.1,204a11.28,11.28,0,0,1,7.55-12.08A20.25,20.25,0,0,1,14.63,190.84Z"/><path class="cls-1" d="M151.14,427.65c-.07,4-.3,8.36-2.37,12.34-1.83,3.49-6,4.89-10.33,3.51a8,8,0,0,1-5.37-8.44c.59-4.55,2.9-8.3,5.64-11.84,1.94-2.52,4-4.89,7-6.2,2.52-1.09,3.57-.58,4.47,2S151.08,424.52,151.14,427.65Z"/><path class="cls-1" d="M257.75,35.28c0,.63,0,1.26,0,1.89-.16,4.15-1.82,6.28-5.23,6.72s-6.18-1.41-7.28-4.92c-1.28-4.07-2-8.17-.42-12.36a6.37,6.37,0,0,1,5.84-4.46c2.67-.22,3.89,1.52,5,3.46A19.52,19.52,0,0,1,257.75,35.28Z"/><path class="cls-1" d="M294.51,453.81c0,4.67-4.5,8.77-9.38,8.64a9,9,0,0,1-8.87-8.83c.06-4.24,5.06-8.3,10.18-8.29A8.22,8.22,0,0,1,294.51,453.81Z"/><path class="cls-1" d="M438.75,211.42a14.6,14.6,0,0,1-4.6-.42c-2.14-.61-4.32-1.29-4.56-4-.26-2.91.26-5.68,3-7.37a15.19,15.19,0,0,1,12.28-1.7c2.54.65,4.06,2.95,4.22,6s-1,5.29-3.7,6.26A15.46,15.46,0,0,1,438.75,211.42Z"/><path class="cls-1" d="M16.41,333.35c-4.57,0-7.23-2.62-7.18-7a9.62,9.62,0,0,1,9.82-9.47,7.45,7.45,0,0,1,7.37,7.41C26.42,329.06,21.66,333.37,16.41,333.35Z"/><path class="cls-1" d="M376.21,50.67c.06,3.23-1.38,5.91-3,8.52a5,5,0,0,1-5,2.52c-2.52-.29-3.72-2.25-4.39-4.32-1.37-4.26,3.33-10.83,7.81-11.21C375,45.9,376.28,47.16,376.21,50.67Z"/><path class="cls-1" d="M103.22,55.75a5.71,5.71,0,0,1,5.35,5.69c0,3.13-2.07,5.37-5.24,5.16-3.53-.24-5.87-1.38-5.62-5.26C97.93,58,100,55.73,103.22,55.75Z"/><path class="cls-2" d="M380.35,726c-1.53,4.89.4,8.81,3.55,12.34a30.3,30.3,0,0,0,10.31,7.72c3.33,1.49,6.43,3.54,7.94,6.93,2.28,5.11.61,10.63-3.82,14.22-6.81,5.53-15.1,2.72-18-6.13a17.79,17.79,0,0,0-7-9.73c-3.31-2.21-7-2.59-10.19-.32-7.14,5-14.93,5.16-23.1,4.08-4.91-.64-9.89-1-14.72.76-6.83,2.53-10.27,7.87-12.26,14.52A41,41,0,0,1,308.85,781a21.9,21.9,0,0,1-4.12,5c-4.71,4.16-9.63,3.93-14.78,1.15-3.17-1.71-6.26-3.59-9.42-5.33-8-4.38-15.94-4.6-24-.2-7.33,4-14.32,8.38-17,16.91a35.91,35.91,0,0,0-1.62,13.8v0c-.91,4.56.3,9,1.3,13.31,1.64,7.14,3.47,14.24,2.4,21.66a32.18,32.18,0,0,1-4.68,13.16c-5.06,7.86-14.55,9.42-21,7.18-9.43-3.25-14.61-11-13.51-20a48.26,48.26,0,0,1,8.26-22.4c7.34-10.33,9.09-21.8,8.08-34a10.57,10.57,0,0,0-15.55-8.58c-3.58,1.85-7.23,3.85-11.23,4.66-8.54,1.71-15.83-4-16.88-13.05-.43-3.67-.77-7.36-1.32-11-1-6.57-4.53-11-11-13.18-4-1.31-7.27-.16-10.26,2.36a40.12,40.12,0,0,0-5.57,6.28c-3.29,4.22-7.34,5.54-11.66,3.85-5.12-2-8.71-7.07-8.27-11.86a11.07,11.07,0,0,1,4.74-7.81c2.59-2,5.4-3.66,8-5.59a11,11,0,0,0,4.54-7.71c.64-4.78-2-9-6.73-9.8-4.18-.68-8.45-.82-12.67-1.23-9.42-.89-16.57-10.62-12.49-19.94s.54-17-5.86-23.87c-3.64-3.92-7.84-7-13.12-8.2-6.37-1.4-11.94,1.33-17.23,4.27-5.76,3.2-11.07,7.29-17.49,9.17-9.12,2.68-17.36,2.27-23.57-5.09-8.4-10-5-26.69,6.83-31.85,6.74-2.94,13.78-2.35,20.71-.21,5.16,1.59,10,4.41,15.52,4.67,8.62.4,16-1.9,20.32-10.11a10.54,10.54,0,0,0,.59-9.14c-2.64-6.88-4.8-13.89-3.51-21.4,1-5.81,2.94-11,8.34-14.52a74,74,0,0,1,10.82-5.52c7.1-3.1,8.49-7.9,4.27-14.32a69.14,69.14,0,0,0-5.3-6.88c-2.47-2.89-5.12-5.65-7-9-1.68-3.09-2.89-6.28-1.41-9.82,1.58-3.77,7.36-7.1,11.56-6.37s8.12,1.74,12.16,2.7c9.39,2.22,17.46-5.24,20.46-11.77,1.45-3.14,2.12-6.53,3.27-9.76,3.29-9.27,10.37-13.4,19.61-10.26,13.87,4.72,24.5.07,33.81-10a46.62,46.62,0,0,0,9.88-15.07c2.74-7.21.91-14-1.93-20.76-2.53-6-5.55-11.76-7.59-18-4.37-13.28,5.29-23.69,16.18-25.36,11.32-1.74,19.67,5.95,20.33,18.46.37,7.18-1.31,14-3,20.83-1.62,6.5-2.52,12.84.19,19.38,4.45,10.76,14.74,14.35,24.59,8.2a79.66,79.66,0,0,1,10.91-6.06c8.16-3.46,17-1.11,22.92,5.89,2.58,3,5.19,6,7.92,8.92,7.82,8.32,21.49,6.84,26.93-2.83a17,17,0,0,0,1.51-4.9c.89-4,1.87-7.8,5.34-10.63,5.09-4.15,12.56-1,15.38,2.3a22.51,22.51,0,0,1,2.84,3.78c3,5.44,1.75,10.07-3.29,14.24-3.29,2.73-6.91,5-9.3,8.9-5.75,9.31,0,19.1,11.24,18.66a44,44,0,0,1,9.74.32c8.22,1.52,12.52,7,14.51,14.69,1.35,5.19,1.32,10.56,1.93,15.85a18.37,18.37,0,0,0,6.79,12.53c3.48,2.87,8.38,2.72,13.48,0a50.18,50.18,0,0,0,18.75-17.19c3.5-5.43,7.31-10.69,12.82-14.51,12.32-8.54,27.88-3.63,32.62,10.44,2.48,7.34-.22,15.22-7,21-7,5.93-15.37,8.17-24.05,9.85-11.54,2.23-21.11,7.81-28.23,17.25a24,24,0,0,0-.85,27.74,43.55,43.55,0,0,0,4,5.51c3,3.33,4.68,7,4.32,11.58-1.83,2.89-2.95,6.2-5.31,8.78A5.8,5.8,0,0,0,410,653l-.18.08,0,.19c-1.34,1.11-1.14,2.61-1.07,4.09a2.32,2.32,0,0,0,1.83,2.71,2.68,2.68,0,0,0,2.09,1.24c1.53.76,3.09,1.47,4.59,2.29,6.52,3.54,8.5,7,6.13,15.18-.13.43-.29.86-.43,1.28l-2,3.85-.35.42a8.82,8.82,0,0,1-8.38,3.84c-1.91-.15-3.68-.79-5.52-1.11-2.83-.49-5.91-.91-7.87,1.73a13,13,0,0,0-2.79,9.57c.1,1,.19,2,.29,3-.47,2.14-.19,4.35-1,6.49-1.48,4-4.46,6.43-8,8.34C383.36,718.34,380.7,721.35,380.35,726Z"/><path class="cls-2" d="M445.86,669.45c8.06-4.89,16.4-7.07,25.29-2.14,5.71,3.17,8.47,8.17,7.45,14.65-2.46,15.53-14,22.26-28.54,16.34-5.21-2.12-9.53-5.42-12.23-10.59-2.08-4-1.41-7.7.89-11.27A21.41,21.41,0,0,1,445.86,669.45Z"/><path class="cls-2" d="M58.58,722.28a19.72,19.72,0,0,1,9.92-3.84c7.64-.77,12.31,4.51,10.26,11.83a23.11,23.11,0,0,1-9.85,13.78c-4.7,3-10.73,1.9-14.9-2.71a11.28,11.28,0,0,1-.59-14.23A20.26,20.26,0,0,1,58.58,722.28Z"/><path class="cls-2" d="M304.92,840.74c2.21,3.36,4.47,7.07,5,11.52.47,3.92-2.2,7.43-6.54,8.72a8,8,0,0,1-9.19-3.93c-2.09-4.09-2.29-8.49-2-13,.19-3.17.55-6.29,2.29-9.07,1.46-2.31,2.61-2.49,4.81-.88S303.1,838.18,304.92,840.74Z"/><path class="cls-2" d="M171.49,456.66c.35.52.73,1,1.06,1.57,2.21,3.51,2,6.21-.53,8.49s-5.89,2.33-8.78,0c-3.36-2.64-6.3-5.59-7.33-10a6.38,6.38,0,0,1,2.31-7c2.08-1.68,4.06-.94,6,.06A19.52,19.52,0,0,1,171.49,456.66Z"/><path class="cls-2" d="M438,781.42c2.6,3.87,1.23,9.78-2.87,12.42a9,9,0,0,1-12.31-2.28c-2.33-3.53-.5-9.71,3.73-12.59A8.24,8.24,0,0,1,438,781.42Z"/><path class="cls-2" d="M420.32,499.92a14.49,14.49,0,0,1-4,2.24c-2.11.71-4.29,1.37-6-.7-1.86-2.26-3-4.84-1.72-7.76a15.21,15.21,0,0,1,9.19-8.33c2.46-.9,5,.13,6.87,2.57s2.12,4.95.47,7.25A15.45,15.45,0,0,1,420.32,499.92Z"/><path class="cls-2" d="M140.47,838.92c-3.78,2.57-7.45,1.92-9.87-1.73a9.6,9.6,0,0,1,2.76-13.35,7.44,7.44,0,0,1,10.26,1.95C146.32,829.73,144.83,836,140.47,838.92Z"/><path class="cls-2" d="M278,402.51c1.87,2.63,2.19,5.66,2.28,8.75a5,5,0,0,1-2.71,4.91c-2.24,1.18-4.34.24-6.06-1.09-3.54-2.74-3.37-10.82.13-13.66C274.26,399.26,276,399.57,278,402.51Z"/><path class="cls-2" d="M55.47,560.76a5.71,5.71,0,0,1,7.63,1.69c1.78,2.58,1.32,5.59-1.42,7.21-3,1.8-5.62,2.17-7.6-1.17C52.39,565.62,52.79,562.58,55.47,560.76Z"/><path class="cls-3" d="M957.46,333.19c.77,6.32,4.63,10,9.55,12.8a34.18,34.18,0,0,0,14.26,4.57c4.14.31,8.29,1.38,11.47,4.66a16,16,0,0,1,2.9,18.11c-4.32,9.29-14.17,9.55-21.36.51-3.25-4.08-7-7.08-11.79-8.32-4.45-1.17-8.39,0-10.6,3.94-4.91,8.85-12.83,12.31-21.71,14.53-5.35,1.34-10.64,3-14.73,7.12-5.78,5.83-6.74,13.48-5.59,22,.62,4.67,1.21,9.37.66,14a27.64,27.64,0,0,1-1.84,7.5c-2.84,6.82-8,8.64-14.6,7.6-4.07-.63-8.14-1.5-12.22-2.18-10.25-1.71-18.53,1.43-24.68,9.94-5.6,7.74-10.66,15.79-9.32,26.81a50.91,50.91,0,0,0,5,16.68v0c1.26,5.68,4.6,10.24,7.72,14.87,5.1,7.59,10.38,15,12.85,24.09a44.19,44.19,0,0,1,1.5,17.24C873.48,561,864.5,566.8,856.8,567c-11.23.23-20.26-6.58-23.46-17.49-2.87-9.81-3.92-19.78-2.27-29.47,2.57-15.08-1.14-29.11-8-42.82-4.41-8.77-14.77-10.31-20-3.34-2.78,3.66-5.56,7.53-9.28,10.16-7.93,5.6-18.14,2.06-23.55-8-2.2-4.08-4.32-8.21-6.64-12.22-4.16-7.19-9.93-10.88-17.55-10.62-4.69.16-7.52,2.9-9.39,7.08a49.27,49.27,0,0,0-2.69,9.64c-1.35,6.29-4.87,9.53-10.1,9.4-6.22-.16-12.32-4.49-14.16-10.23A14.24,14.24,0,0,1,710.75,458c1.7-3.39,3.78-6.53,5.54-9.88a14.25,14.25,0,0,0,1-10.86c-1.64-5.81-6.38-9.61-11.61-8.51-4.61,1-9,2.63-13.57,4-10.08,2.95-22.07-5.29-22.36-17.82-.28-12.71-7.59-19.91-17.45-25.17-5.61-3-11.4-4.84-17.38-3.95-7.2,1.08-11.59,6.61-15.6,12.26-4.37,6.15-7.85,13.13-13.53,18-8.06,7-16.71,10-26.6,4.09-13.39-8-17.9-28.82-8.27-39.8,5.49-6.26,13-8.57,21.12-9,6.06-.34,12.35.89,18.15-1.17,9-3.19,15.46-9,16-20.33A14.78,14.78,0,0,0,622.34,339c-6-6.85-11.58-14.06-13.86-23.31-1.76-7.16-2.28-14.05,1.59-20.37a79.53,79.53,0,0,1,8.44-11c5.79-6.6,4.91-12.75-2.49-18.41a87.86,87.86,0,0,0-8.73-5.72c-3.91-2.3-7.95-4.38-11.45-7.51-3.2-2.87-6-6.05-6.15-10.78-.19-5,4.13-11.35,8.79-12.29s9.16-1.42,13.76-2c10.69-1.41,15.37-13.47,15.33-22.32,0-4.25-1-8.46-1.34-12.69-1.07-12.14,4.2-19.93,15.18-20.21,16.48-.41,25.14-10.31,29.87-25.88a59.62,59.62,0,0,0,2.9-21.65c-.65-9.52-5.8-16.66-11.93-23.24-5.47-5.87-11.33-11.27-16.4-17.6-10.84-13.54-5.93-29.7,4.43-36.25C661,41,673.29,46.33,680,60.55c3.83,8.16,5.37,16.79,6.91,25.43,1.46,8.21,3.58,15.94,9.49,22.37,9.71,10.58,22,10.37,29.12-.93a86.09,86.09,0,0,1,8.28-11.64c6.7-7.47,16.86-8.48,26.31-2.9,4.09,2.42,8.21,4.79,12.4,7,12,6.31,25.29-1.19,26.24-14.71a23.69,23.69,0,0,0-.8-6.31c-1-5-1.83-9.83.37-14.59,3.22-7,12.39-6.48,16.87-3.86a29.13,29.13,0,0,1,4.72,3.18c5.67,5,6.62,10.93,3.46,17.89-2.08,4.57-4.67,8.79-5.27,14.27-1.43,13.23,9.12,22.15,20.47,16.86a42.82,42.82,0,0,1,10.14-3.76c9.14-1.73,16.19,2.82,21.91,10.87,3.87,5.43,6.41,11.68,9.57,17.54a24.05,24.05,0,0,0,13,11.65c5,1.85,9.89-.4,13.79-5.77a58.94,58.94,0,0,0,11-27.87c1-7.79,2.37-15.5,6.18-22.25,8.53-15.13,26.84-16,38.44-1.74,6.06,7.46,7.08,17.73,2.88,27.35-4.29,9.82-11.83,16-19.93,21.61-10.75,7.49-17.89,18-20.65,32a33.33,33.33,0,0,0,12.43,32.51,55.13,55.13,0,0,0,6.71,4.7,20.19,20.19,0,0,1,10,11.59c-.48,4.12,0,8.43-1.23,12.42a8.2,8.2,0,0,0,.14,2.58l-.14.16.06.24c-.84,1.85.09,3.51.87,5.19a2.91,2.91,0,0,0,3.17,2.37,3,3,0,0,0,2.74.54c1.93.24,3.87.4,5.8.71,8.37,1.34,12.1,4.57,13.56,15,.08.55.12,1.11.17,1.67-.07,1.77-.13,3.54-.2,5.31l-.16.63c-.77,4.17-3,6.82-6.74,8a59.92,59.92,0,0,1-6.2,1.06c-3.13.63-6.49,1.45-7.23,5.34a17.88,17.88,0,0,0,1.73,12.27l1.73,3.34c.55,2.67,1.89,5.12,2.1,7.93.4,5.25-1.48,9.34-4.19,13.06C956.85,323,955.56,327.61,957.46,333.19Z"/><path class="cls-3" d="M997.46,239.83c5.9-9.09,13.42-15.14,24.88-13.2,7.38,1.25,12.61,5.87,14.67,13.82,4.92,19-3.66,31.73-21.42,31A26.52,26.52,0,0,1,998,264.4c-4.06-3.75-5.15-8.32-4.51-13.44A25.39,25.39,0,0,1,997.46,239.83Z"/><path class="cls-3" d="M625.9,465.28a20.41,20.41,0,0,1,8.33-8.66c7.46-4.14,14.78,0,16.19,9.35,1.1,7.31.17,14.19-3.49,20.15-3.37,5.49-10.09,6.75-16.57,3.18a15.6,15.6,0,0,1-7.43-16.24A23.7,23.7,0,0,1,625.9,465.28Z"/><path class="cls-3" d="M935.16,498.1c3.87,3,8,6.29,10.65,11.23a10.35,10.35,0,0,1-2.53,12.88c-3.08,2.69-8,2.44-11.31-.66-4.09-3.85-6.41-8.86-8.29-14.15-1.33-3.75-2.46-7.53-2-11.48.38-3.3,1.48-4,4.5-3.06C929.36,493.84,932.07,495.91,935.16,498.1Z"/><path class="cls-3" d="M614.24,109.57c.62.45,1.24.89,1.85,1.36,3.95,3.14,5.06,6.34,3.53,10.08s-4.93,5.19-9,3.78c-4.7-1.64-9.14-3.81-12.29-8.45-2-3-2.45-5.93-1-9.07,1.32-2.83,3.71-2.81,6.22-2.49A23,23,0,0,1,614.24,109.57Z"/><path class="cls-3" d="M1043.14,372.91c4.51,3.38,5.94,10.81,3,15.61a9.26,9.26,0,0,1-13.71,2.58c-4.09-3.11-5.18-11-2.22-16.18C1032.82,370.41,1038.6,369.51,1043.14,372.91Z"/><path class="cls-3" d="M890,54.19a15.52,15.52,0,0,1-3.07,4.32c-1.82,1.71-3.74,3.4-6.48,1.72-3-1.82-5.39-4.33-5.48-8.26a17.83,17.83,0,0,1,5.41-13.55c2.1-2.08,5.21-2,8.28.07s4.55,4.84,4,8.2A18.39,18.39,0,0,1,890,54.19Z"/><path class="cls-3" d="M765.76,565.72c-2.65,4.58-6.71,5.39-11,2.19a13,13,0,0,1-3.58-16.65c2.3-4,7.51-5,11.46-2.09C767.35,552.6,768.81,560.46,765.76,565.72Z"/><path class="cls-3" d="M697.4,1.66c3.17,2.26,5,5.63,6.54,9.18,1.12,2.51,1.06,4.86-.43,6.84-1.73,2.31-4.33,2.12-6.73,1.31-4.94-1.69-8.64-11.12-6.42-15.89C692-.52,694-.93,697.4,1.66Z"/><path class="cls-3" d="M545.27,279.41c1.64-2.84,5.67-3.44,8.62-1.28s4,5.92,2,8.95c-2.26,3.38-4.72,4.91-8.35,1.87C544.44,286.34,543.39,282.66,545.27,279.41Z"/><path class="cls-3" d="M994.76,142.6c7.65,1.46,14,4.75,16.69,12.69,1.75,5.11.67,9.7-3.55,13.11-10.1,8.16-20.89,5.9-26.54-5.79a18.9,18.9,0,0,1-1.63-13.26c.93-3.61,3.4-5.51,6.79-6.43A17.64,17.64,0,0,1,994.76,142.6Z"/><path class="cls-3" d="M562.55,174.7c7.64,1.46,14,4.75,16.68,12.69,1.75,5.11.68,9.7-3.55,13.11-10.1,8.16-20.89,5.9-26.54-5.79a18.9,18.9,0,0,1-1.63-13.26c.94-3.6,3.4-5.51,6.79-6.42A17.55,17.55,0,0,1,562.55,174.7Z"/><path class="cls-2" d="M400.65,723.51a13,13,0,0,1,4.19-5.62c4-3.11,8.45-1.79,9.87,3A15.29,15.29,0,0,1,414,732c-1.57,3.32-5.33,4.81-9.27,3.7a7.45,7.45,0,0,1-5.31-7.73A13.28,13.28,0,0,1,400.65,723.51Z"/><path class="cls-3" d="M363.06,784.78a13,13,0,0,1,6.82,1.6c4.45,2.42,5,7,1.19,10.25a15.3,15.3,0,0,1-10.48,3.83c-3.68-.11-6.54-3-7.1-7a7.42,7.42,0,0,1,5-8A13.36,13.36,0,0,1,363.06,784.78Z"/><path class="cls-1" d="M78.88,492.76a9.42,9.42,0,0,1-3-.28c-1.41-.4-2.84-.85-3-2.61-.17-1.92.17-3.75,2-4.86a10,10,0,0,1,8.09-1.12c1.67.43,2.68,1.94,2.78,4S85,491.33,83.23,492A10.19,10.19,0,0,1,78.88,492.76Z"/><path class="cls-1" d="M430.24,137a9.1,9.1,0,0,1-3-.28c-1.41-.39-2.85-.84-3-2.61s.17-3.74,2-4.85a10,10,0,0,1,8.09-1.12c1.67.43,2.68,1.94,2.78,4s-.69,3.48-2.44,4.12A10,10,0,0,1,430.24,137Z"/><polygon class="cls-4" points="815.1 564.33 286.27 742.02 273.33 742.94 155.79 298.18 167.4 295.72 725.1 281.22 815.1 564.33"/><polygon class="cls-5" points="828.27 561.59 286.27 742.02 167.4 295.72 738.27 278.48 828.27 561.59"/><polygon class="cls-6" points="815.27 552.02 376.27 695.02 271.69 307.83 732.27 291.02 815.27 552.02"/><polygon class="cls-7" points="479.78 661.3 376.27 695.02 271.69 307.83 378.14 303.94 479.78 661.3"/><path class="cls-8" d="M292,499.88c1.24,10.78-5.38,20.19-15,21-9.81.87-19-7.52-20.26-18.74s5.82-20.67,15.69-21.08C282.05,480.68,290.72,489.1,292,499.88Z"/><path class="cls-9" d="M294.61,545.33c1.67,6.2-1.34,12.43-6.78,13.95s-11.42-2.36-13.13-8.7,1.46-12.62,7-14S292.94,539.14,294.61,545.33Z"/><path class="cls-9" d="M304,578.67c1.67,6.19-1.33,12.43-6.77,13.94s-11.42-2.35-13.13-8.7,1.46-12.62,7-14S302.35,572.47,304,578.67Z"/><path class="cls-9" d="M259.27,418.13c1.67,6.2-1.33,12.43-6.77,13.94s-11.42-2.35-13.13-8.69,1.46-12.62,7-14S257.6,411.94,259.27,418.13Z"/><path class="cls-9" d="M268.69,451.47c1.67,6.19-1.34,12.43-6.78,13.94s-11.42-2.36-13.13-8.7,1.46-12.62,7-14S267,445.27,268.69,451.47Z"/><path class="cls-10" d="M289.43,500c1.06,9.21-4.61,17.22-12.79,17.91-8.34.7-16.11-6.44-17.2-16s4.93-17.56,13.31-17.94C281,483.68,288.38,490.84,289.43,500Z"/><polygon class="cls-11" points="736.39 303.94 278.66 333.63 271.69 307.83 732.27 291.02 736.39 303.94"/><polygon class="cls-12" points="191.27 305.98 177.62 306.52 176.36 301.88 190.32 301.37 191.27 305.98"/><polygon class="cls-11" points="815.27 552.02 376.27 695.02 370.26 672.74 811.96 541.59 815.27 552.02"/><path class="cls-2" d="M492.3,388.88l-6.86,39.51s35.33,17.58,35.33,15.39-7-40.52-7-40.52Z"/><path class="cls-13" d="M535,386.52l26.35,62.3s44.39,72.53,50.39,72.16,61.4-90.87,53-91.74-159-47.46-159-47.46L557,366.09Z"/><polygon class="cls-3" points="655.01 364.2 612.77 450.61 673.77 507.22 706.5 468.45 662.23 381.78 655.01 364.2"/><polygon class="cls-2" points="694.77 342.6 647.29 416.71 747.88 442.44 694.77 342.6"/><polygon class="cls-14" points="599.77 347.73 531.77 484.74 565.77 476.18 599.77 347.73"/><polygon class="cls-15" points="486.17 494.74 486.17 581.29 599.77 585.6 486.17 494.74"/><polygon class="cls-16" points="448.77 396.6 430.6 451.93 492.22 454.09 448.77 396.6"/><polygon class="cls-3" points="473.57 347.73 463.4 396.6 478.81 403.26 497.84 355.96 473.57 347.73"/><path class="cls-17" d="M417.11,347.73c-1.34,4.87,33.66,41.15,33.66,41.15l12.64-41.15Z"/><polygon class="cls-1" points="554.98 333.63 691.49 347.73 680.77 324.6 496 328.92 505.82 347.73 527.39 336.16 554.98 333.63"/><path class="cls-1" d="M747.88,491.17,743.29,493l-96,38.58,9.11,21,91.48-16.29L723,510.25,756.32,501s-1.45-27.26,0-24.84,23.45,34.07,23.45,34.07Z"/><polygon class="cls-17" points="769.77 518 756.32 541.59 774.77 541.59 769.77 518"/><path class="cls-14" d="M599.77,548c2,3.64,42,33.33,42,33.33l-12.93-41.12-29.07,1.42Z"/><path class="cls-5" d="M909.72,303.7,688,399.2c-.44.19-.86.4-1.27.62-3.24,1.28-14.64,7-30.33,28.55,26.44,3.41,38.43-.94,41.58-2.42a13.3,13.3,0,0,0,1.33-.49L921,330a14.29,14.29,0,0,0,7.47-18.78h0A14.3,14.3,0,0,0,909.72,303.7Z"/><rect class="cls-9" x="724.26" y="391.32" width="14.29" height="9.5" transform="translate(-97.02 321.63) rotate(-23.3)"/><rect class="cls-9" x="740.73" y="384.22" width="14.29" height="9.5" transform="translate(-92.87 327.57) rotate(-23.3)"/><path class="cls-18" d="M917.44,579.1s-60,27-66.82,42.46c-37.36,84.74-129.11,59.28-129.11,59.28S587,724.49,647.33,835.31s208.9,86.83,208.9,86.83,216.39-24.44,230.31-207.34S917.44,579.1,917.44,579.1Zm-9.52,94.51a25.71,25.71,0,1,1,18.86-31.09A25.72,25.72,0,0,1,907.92,673.61Z"/><path class="cls-19" d="M908.45,566.22s-60,27-66.82,42.46C804.27,693.42,712.52,668,712.52,668S578,711.61,638.34,822.44s208.9,86.82,208.9,86.82,216.39-24.43,230.31-207.34S908.45,566.22,908.45,566.22Zm-9.52,94.51a25.71,25.71,0,1,1,18.86-31.09A25.71,25.71,0,0,1,898.93,660.73Z"/><circle class="cls-20" cx="1020.01" cy="653.85" r="32.34"/><circle class="cls-17" cx="1019.22" cy="650.62" r="32.34"/><circle class="cls-21" cx="1009.05" cy="745.1" r="32.34"/><circle class="cls-16" cx="1008.11" cy="741.26" r="32.34"/><circle class="cls-22" cx="942.98" cy="816.87" r="32.34"/><circle class="cls-13" cx="942.39" cy="814.44" r="32.34"/><circle class="cls-23" cx="842.42" cy="848.39" r="32.34"/><circle class="cls-14" cx="841.71" cy="845.48" r="32.34"/><g class="cls-24"><path class="cls-6" d="M817.54,847.21c-.82-10.13,4.17-18.37,12.14-24.24a.7.7,0,0,0-.71-1.21c-9.35,4.51-14.07,15.41-13.11,25.45.1,1.06,1.77,1.08,1.68,0Z"/></g><g class="cls-24"><path class="cls-6" d="M918.32,816.16c-2.5-9.52,1.65-17.56,9.4-23a.61.61,0,0,0-.62-1c-9.46,4.15-13,15-10.22,24.47a.75.75,0,0,0,1.44-.4Z"/></g><g class="cls-24"><path class="cls-6" d="M982.3,744.81c-.74-12.07,7.39-21.93,17.53-27.47.78-.43.24-1.8-.61-1.46-12.14,4.82-20.39,15.41-18.7,28.93.14,1.11,1.86,1.17,1.78,0Z"/></g><g class="cls-24"><path class="cls-6" d="M992.36,650.14c.82-4,1.37-7.29,3.67-10.8,2.1-3.24,4.91-6,7.43-8.92.61-.71-.21-2-1.08-1.4-6,4.42-13.9,12.84-11.28,21.12.18.58,1.13.67,1.26,0Z"/></g><g class="cls-24"><path class="cls-6" d="M1035.24,735.36c-1.49,4-1.37,8.31-2.48,12.38s-3.57,7.65-6.22,11c-.68.87.21,2.47,1.3,1.7,7.67-5.44,9.82-16.29,8-25.13-.07-.35-.53-.28-.63,0Z"/></g><g class="cls-24"><path class="cls-6" d="M1043.35,643.34c-.85,3.34-.87,6.8-1.93,10.11-1.17,3.68-3.21,6.84-5.13,10.15-.68,1.16.82,2.15,1.76,1.36,5.53-4.59,9.26-14.89,6-21.71a.38.38,0,0,0-.69.09Z"/></g><g class="cls-24"><path class="cls-6" d="M967,814.73c-1.3,11.2-9.27,17-17.13,23.95-.69.6.2,1.7,1,1.25,8.94-5.23,18-14.1,17.66-25.2a.75.75,0,0,0-1.5,0Z"/></g><g class="cls-24"><path class="cls-6" d="M868.16,841.75c-3.48,9.49-6.9,17.91-15,24.4-.71.57.06,1.92.91,1.56,9.93-4.14,15.84-15.32,15.37-25.79a.66.66,0,0,0-1.29-.17Z"/></g></g></g></svg>