<svg xmlns="http://www.w3.org/2000/svg" viewBox="0 0 1272 1272"><defs><style>.cls-1{fill:#111111;}</style></defs><title>Recurso 5</title><g id="Capa_2" data-name="Capa 2"><g id="Capa_1-2" data-name="Capa 1"><path class="cls-1" d="M0,0V1272H1272V0ZM1125.61,681.32h0l-444.3,444.29a65.51,65.51,0,0,1-92.64,0l0,0-92.22-92.28,117-117A77.82,77.82,0,0,0,712,817.09L824.82,704.31a77.91,77.91,0,1,0-46.7-44L673.35,765.54V488.7A78.12,78.12,0,1,0,608.74,491V770.36a78,78,0,0,0-42.46,101.79l.2.47L451.11,988,146.46,683.37a65.58,65.58,0,0,1,0-92.7L590.7,146.39a65.55,65.55,0,0,1,92.69,0l442.22,442.23a65.56,65.56,0,0,1,0,92.7Z"/></g></g></svg>