<svg xmlns="http://www.w3.org/2000/svg" viewBox="0 0 1272 1272"><defs><style>.cls-1{fill:#111111;isolation:isolate;}</style></defs><title>Recurso 10</title><g id="Capa_2" data-name="Capa 2"><g id="Capa_1-2" data-name="Capa 1"><path class="cls-1" d="M926.4,531.13c-6.08-1.44-10.43-3.63-13.64-6.43a154.79,154.79,0,0,0-8.48,48c-.31,3.7-.78,9.49-1.32,15.17,3.9-3.42,8.73-6.38,13.55-6.13,10,.53,19.55,2.47,25.57-1C940.38,569.8,912.54,560,926.4,531.13Z"/><path class="cls-1" d="M0,0V1272H1272V0ZM901.36,826.18A77.32,77.32,0,0,1,893.2,878c-1.28,6.38-2.73,12.42-4.07,18.49,7.88-1.55,13.76-1.91,11,14.91-.65,4-1.59,8.81-2.66,14.13a8.52,8.52,0,0,1-.76,3.74c-3.67,18.1-8.39,41.13-8.82,60.17-.58,26.21-.57,56.5,1.17,61.74s14.58,11.1,23.89,17.51c35.53,25.63,62.9,30.28,81,39.6,16.59,8.56,14,24.46-10,31.08l-1.05.95-1.66-.26c-1.34.31-2.71.6-4.16.85-24.46,4.65-62.9-4.66-88.53-4.66-25.23,0-80.88,2.82-97.1-7.08-2.63-.29-4.24-.5-4.24-.5l-.18-3.07c-12.64-12.6-6.23-31.9-6.23-31.9,4.66-12.81,16.3-41.34,12.81-64.65a219,219,0,0,0-16.78-57.4,6.49,6.49,0,0,1-.7-.24l-.06-1.71c-8.4-22.49-14.29-72.94-6.35-75.77,6.06-2.17,6.33-1.11,10.38.53,3.25-11.83,11.15-23.92,32.09-40.35,1.06-15.35-5.34-30.35-12.15-53.95a132.4,132.4,0,0,1-46.62,48.4A46.43,46.43,0,0,1,740,875.94a126.57,126.57,0,0,1-.73,31.3c-.93,10.53-1.53,29.3-20.46,60.18-5.63,13.79-11.15,27.21-13.77,33.15-6.4,14.56-5.82,42.51-5.82,48.33s-2.33,17.48-4.08,18.06,5.83,15.72,2.33,24.46c-2.34,8.17,5.25,29.14,5.83,33.79h0c5.24,31.45.59,33.79-32,37.86s-56.49-8.15-65.23-16.3-10.48-26.21-1.75-42.52c5.25-10.49,10.49-14,13.4-26.8a65.21,65.21,0,0,1,7.57-19.79c2.32-4.09,2.91-8.16,3.49-36.7s0-82.13,2.91-104.84a6.79,6.79,0,0,1,1.26-3.21c1.33-9.73,3.46-18.67,6.64-25.84a84,84,0,0,1,6.8-17.05,45.82,45.82,0,0,1-20-15.64c-28.55-38.44-55.9-54.17-132.22-55.34-73.38-1.16-136.29-37.27-145.61-115.31C342.9,633,334.4,595.66,308.93,572.25c-13.46,8.6-21.46,13.63-21.46,13.63l-9.9,5.24a138.43,138.43,0,0,0-13.12,7.3c-2.12,1.39-4,2.65-5.52,3.76l.1-.34C223.28,625,166.7,671.12,154.09,686.63c-15.73,18.64-20.38-10.48-4.08-58.82,12.81-39,45.43-92,100.18-137.45,32-26.21,102.51-64.07,145.61-86.21a1442.61,1442.61,0,0,1,212-73.59,57.69,57.69,0,0,1,21-12,31.6,31.6,0,0,1,20.38-1.16,155.54,155.54,0,0,0,18.64-11.07c7-4.07,19.81,1.75,22.72,3.5,9.9-5.82,16.31-14,26.21-11.06,1.95.52,3.87,1.12,5.78,1.76,9.35-2.45,17.7-4,18.1-6.43q3.09-16.49,4.95-33.16a259.87,259.87,0,0,1-3.78-26.23c-2.16-13.64-1.66-35.47.14-51.85a17.44,17.44,0,0,1,.54-4.5c1.07-8,2.46-14.18,4-16.45,14.57-19.8,91.45-22.13,107.75,1.16,7,10.49,6.41,35,5.24,50.67-1,13.53-4.15,40.39-5.39,54.69.55,11.06,1,23.51,1.32,32.09.51,14.1.15,15.57,5.68,18a30.37,30.37,0,0,1,11.86-.15A39.18,39.18,0,0,1,887,323.76a22.34,22.34,0,0,1,6.24.6,23.08,23.08,0,0,1,11.64,12.23c13.4-4.66,14.56.59,21,7.58,13.87-2.89,15.7,2.23,24.23,14.8a57.7,57.7,0,0,1,20.6,12.57,66.18,66.18,0,0,1,15.73,73.39,56.44,56.44,0,0,1,9.32,53.59c37.77,32,22.12,80.93-11,114.14a11.63,11.63,0,0,1,0,1.18s-7.07,22.68-20.91,38a46.63,46.63,0,0,1-12.29,10.31s-13.61,4.85-40.83-8.08C918.22,686.84,936.22,781.76,901.36,826.18Z"/><path class="cls-1" d="M844.69,170.26c-1.75-5.24-14.56-14.56-44.26-14.56-32,0-41.34,9.9-41.93,15.14,0,1.75-2.33,20.39-2.92,28,0,0,0,9.31.58,23.29.59,9.32,2.91,14.56,4.08,26.8a65.9,65.9,0,0,0,11.06,31.45,26.91,26.91,0,0,0,8.16,4.07,119.15,119.15,0,0,0,43.1,0c6.4-1.75,14.56-12.81,16.31-22.71,2.32-12.23,4.65-21,5.24-28.54,1.16-7.57,1.75-24.46,2.32-29.12a122.1,122.1,0,0,0-1.74-33.81Z"/><path class="cls-1" d="M849,336c-.3-4.43.92-12.74.61-21.4-.26-7.38-.88-16.32-1.59-24.7-.76.63-1.57,1.28-2.49,2-8.16,5.83-14.56,12.23-21,13.4a133.44,133.44,0,0,1-43.08,0,34.62,34.62,0,0,1-8.16-3.49c-4.07-2.92-8.15-6.41-12.8-9.91a46.45,46.45,0,0,1-5.62-4.85c-.21,2.92-.48,5.93-.8,8.92A137.08,137.08,0,0,1,751.76,314c-.29,1.71,4.4,5.91,10,13.32a502.7,502.7,0,0,0,58.18,16.12C828.16,345.26,840.18,341.24,849,336Z"/><path class="cls-1" d="M921,444.29l-1.95-1A141.78,141.78,0,0,0,905,437.61c-1.15-.4-2.3-.79-3.46-1.16-38.61-12.39-81-8.8-121.67,1.25a51.35,51.35,0,0,1-29.71,1.17A107.55,107.55,0,0,1,703,410.33a20.14,20.14,0,0,1-1.56-2h0c-1.32,2-2.73,4-4.26,6.09,2.47,22.71-4.44,39.77-14.17,52.07a173.49,173.49,0,0,0,36.86,34.71c10.52,5.83,17.51,7,35,4.08a58.17,58.17,0,0,1-19.22,14.56,351.89,351.89,0,0,0,5.19,35.84c3.6,3,12.67,8,23.6,13.18,5.25,2.46,10.93,4.95,16.64,7.23a180.5,180.5,0,0,0,25.48,8.34c1.06.24,2.09.46,3.09.64a134.52,134.52,0,0,0,18.85,1.82c2.63.1,5.34.16,8.09.18a449.25,449.25,0,0,0,55.7-3.25l.51-.07,1.25-.2a168.56,168.56,0,0,1,7.41-63.66q1.79-5.6,3.94-11.05c1.24-3.13,2.56-6.23,4-9.28,1.58-3.39,3.26-6.73,5.07-10,.94-2,1.79-4,2.56-6A77.13,77.13,0,0,0,921,444.29Z"/><path class="cls-1" d="M901.45,663l-.33.32c-.5-3.19-1.25-6.5-2.11-10-.16-.63-.31-1.27-.48-1.91-.56-2.27-1.15-4.64-1.75-7.13-.43-1.8-.85-3.66-1.26-5.6-.46-2.16-.91-4.4-1.32-6.77,0-.11,0-.23-.07-.34-.52-2.36-1-4.74-1.42-7.11-.57-3.25-1.06-6.5-1.45-9.77-.09-.77-.16-1.55-.24-2.32-.17-1.6-.31-3.2-.43-4.8-.25-3.33-.41-6.66-.46-10h0c.27-1,.49-2,.69-3,.05-.25.09-.5.14-.76-.88.12-2,.26-3.39.42-11.37,1.34-38.83,3.9-67.75,1.71A203,203,0,0,1,783,590c-10-2.69-17.7-4.94-23.59-6.82-14.75-4.71-18.25-7.09-18.94-8.16-.29,2.2-.62,4.77-.93,7.43s-.61,5.56-.82,8.14l-.13.4c-.49,1.45-1,2.89-1.43,4.35.55.72,1.08,1.46,1.57,2.23,4.78,5.32,15.87,13.06,16,21a8.1,8.1,0,0,1-.28,2.28c0,.07-.06.13-.08.19a21.27,21.27,0,0,1-8.07,9.71c-1.15,1.15-7.08,7.58-11.83,12.35a45.16,45.16,0,0,1-5.65,5.12c-.79.53-1.7,1.18-2.62,1.83-1.11.8-2.24,1.61-3.2,2.25l-8.74,5.82a27.2,27.2,0,0,1-4.52,2.25c-28.55,91-21.71,139-14.79,165,1.26,4.75,2.53,8.76,3.58,12.16-3.76,4.79-7.31,9.17-10.62,13.28-12.45,15.46-21.66,27.19-27.35,43.15q-1,2.75-1.82,5.67l.6.25q-1.68,5.32-3.08,10.57c-.42,1.55-.82,3.1-1.21,4.65-5.81,23.31-7.92,45.33-9.16,66.67-1.41,24.15-1.72,47.43-5,70.71a97.22,97.22,0,0,0,48.33,6.41c.17,0,.32-.3.44-.74.17-1.33.34-2.65.52-3.95.78-11.12.35-39.17,5.45-53.56,2-5.44,4.33-10.67,6.77-16,4.78-10.42,10.07-21.13,14.78-34.34a207.51,207.51,0,0,0,6.2-20.76q1.44-5.89,2.65-12.46c.25-1.37.49-2.76.73-4.17.1-.66.22-1.3.32-2l-.44,0c.51-6.17.84-13.05,1-21,0-1.75-6.4,3.49-11.06,9.32,3.5-18.06,13.39-21.55,21-32.62a34.47,34.47,0,0,0,6.4-21c26-17.43,41.54-37.72,51.68-59.33,2.08-4.43,3.93-8.91,5.59-13.44a228.73,228.73,0,0,0,7.38-24.5c3.93-13.79,8.24-32.59,13.13-48.35l.21-.67c3.72-11.88,7.77-21.94,12.26-26.67v0c-2.45,9-4.32,17.42-5.85,25.43-.11.59-.23,1.19-.34,1.78-6.66,35.84-6.55,63.12-20.14,93.42,10.48,28.21,20.69,41.48,21.65,80.07-19.95-.79-32,15.35-37.19,31.22l1.06.26c2.58.59,5.17,1.11,7.78,1.58,13.82,2.14,36.23,1.63,68.87-1.84q4.94-.6,9.87-1.35c1.28-5,2.73-8,4.39-13a135.47,135.47,0,0,0,6.4-22.72,87.87,87.87,0,0,0-.58-33.2C925.14,795.67,911.38,720.88,901.45,663Z"/><path class="cls-1" d="M693.87,1140.14a22.13,22.13,0,0,0-2-6.87,211.91,211.91,0,0,1-13.41-47.15c4.08,1.16,7,5.82,8.15,2.91,2.33-5.25-4.07-15.14-4.66-22.13v-.59c-5.3-2.3-40.81-3.31-38.44-2.91-4.08,7.57-10.48,6.41-12.81,21.55-1.16,7.57,8.15,1.17,16.89.58-14.22,9.48-30.35,21.35-35.46,32.14a17.59,17.59,0,0,0-1.23,3.39c-3.5,16.3,2.32,21,19.8,29.71a188.64,188.64,0,0,0,47.18,3.49C690,1152,694.5,1147.06,693.87,1140.14Z"/><path class="cls-1" d="M928.38,371.86a4.09,4.09,0,0,1-1.54-1.18l-.1-.12c-1.34-1.14-2.71-2.23-4.08-3.31-1-.76-2-1.52-3-2.25-1.36-1-2.73-2-4.12-2.93a138.88,138.88,0,0,0-16.08-9.51l-.11-.06a50.09,50.09,0,0,1-4.76-2,50.77,50.77,0,0,1-5.73-3.28l-.7-.31-.45-.19a21.54,21.54,0,0,0-6.44-1.76c-1.57-.09-3.14-.12-4.71-.12q-3.95,0-7.86.32-4.43-2.07-8.94-3.94l-1-.41c-5.83,1.31-10.58,2.8-15,4.08a79.64,79.64,0,0,1-11,2.54c-5.84.84-12.21.72-20.88-1.3-4.73-1.1-8.79-2.18-12.45-3.19l-1.15-.32c-8.52-2.39-14.93-4.38-22.76-5.4l-.56-.08-1.67-.19q-1.15-.12-2.37-.21l.38.73s0,.05,0,.08l.47.9.36.7a75.53,75.53,0,0,1-25.51,4.64l-3.35.19-1.72.07a178.36,178.36,0,0,1-28.16-1l-.4-.05c-2.27-.3-4.47-.65-6.58-1.07a54.83,54.83,0,0,1-12.79-3.94c-1.14-.5-2.1-.95-2.95-1.38-1.14-.38-2.27-.74-3.4-1.05l-.21-.05a52.18,52.18,0,0,0-9.65-1.65,67.87,67.87,0,0,0-10.17,0l-.81.06a152.39,152.39,0,0,0-15.92,2.27,75.09,75.09,0,0,0-30.95,13.26,59.93,59.93,0,0,0-8.27,7.43c-.62.68-1.23,1.37-1.81,2.08l-.49.6a42.27,42.27,0,0,1-5.13,7.87,41.33,41.33,0,0,0-4.6,18.85c0,1.75,18.05,7,23.29,28.54-8.74-12.23-23.88-25.63-41.94-14-16,10.17-11.84,31.25-24.73,54.81a80.24,80.24,0,0,1-10.21,14.52c-8.74,9.9-7.57,21.55,1.75,44.85,14.16,34.33,77.77,53.87,117.87,84.87q2.85,2.21,5.55,4.5l.65.55-.87.5c-3.15,17.1,5.34,24.25,19.51,34.22,6.41,4.66-.58,5.24,5.24,8.16a20.29,20.29,0,0,0,18.06,2.33,40.8,40.8,0,0,0,4.15-3.15c.57-.49,1.13-1,1.68-1.52s2.26-1.64,4.1-3.06c3-2.3,6.68-5.17,8.13-6.25l1.9-1.92c2.29-2.31,5.53-5.67,6.84-7.4a30.34,30.34,0,0,0,5.19-7.24c.27-.52.51-1,.75-1.58.16-.36.31-.72.46-1.08.83-4.19-3.76-8.68-8.57-13-1.88-1.7-3.79-3.38-5.42-5a42,42,0,0,0-10.2-7.78c-8.65-4.78-19-6.92-29.45-7l-.46.71-.65-.7c-.82-.89-1.64-1.78-2.45-2.69a207.14,207.14,0,0,1-40.06-67.05c-9.31-21.54-19.8-33.77-40.19-50.09A106.22,106.22,0,0,1,632.63,476a23.19,23.19,0,0,0,19.81,1.75,37.89,37.89,0,0,0,6.66-3.07,45.2,45.2,0,0,0,6.75-4.83c16-13.7,24.74-38.73,26.06-56.44,0-.49.08-1,.1-1.46,2.33-3.5,6.41-11.07,8.16-14,.08-.09.3.08.59.42,0-.13,0-.26,0-.39q3.62,2.76,7.3,5.45l1.59,1.17c1,.7,1.93,1.39,2.91,2.08q13,9.25,26.64,17.5c14,7,23.3,7.58,54.75-1.16a293.56,293.56,0,0,1,69.33-7.57,135.54,135.54,0,0,1,40.17,6.79c1.86.62,3.72,1.26,5.55,2q4.88,1.84,9.61,4.06l.93.45c8.6,4.2,23.13,13.28,25.64-5.37A82.72,82.72,0,0,0,928.38,371.86Z"/><path class="cls-1" d="M1006,530.23c-5.24-16.9-19.81-20.4-43.1-7,9.32-15.16,22.13-15.16,23.88-21,9.32-25.63-5.83-47.18-12.23-54.75,7.57-18.64,14.56-45.43-10.48-69.89-10.68-10.43-24.52-12.49-36.9-11.43,18.8,17.69,34.53,45.36,25.85,74a34.29,34.29,0,0,1-17.48,10.48,60.21,60.21,0,0,1-3.49,36.12l-1,1.86c-3.2,6.06-7.54,14-11.75,23.67l.48.44c9.88,9.29,16.26,9.9,30.18,12.79l.11,0-.09,0a38.29,38.29,0,0,0-5.43,1c-5,1.4-6.85,3.42-7.3,4.76-7.22,30.91,10.19,34.94,14.29,49.59a21.63,21.63,0,0,1,.73,4c0,.31,0,.62.07.94s.05.94.05,1.43c-2.91,2.91-14.55,5.24-25.62,4.66a24.36,24.36,0,0,0-18.64,9.9,46.21,46.21,0,0,0-4.43,4.64c.21,4.42.37,8.55.37,10.5a48.06,48.06,0,0,0,.93,7.31c1,5.34,2.47,12.09,3.44,17.68,9.37,5.71,13.85,9.43,23,11.71,5.65,1.33,10.36,2.27,15,1.11,3.47-.88,6.9-2.94,10.65-6.94a88.73,88.73,0,0,0,22.18-41.77c.19-.83.37-1.66.53-2.49,0,.58.59,1.16.59,1.75.54-.61,1.1-1.24,1.65-1.89l.84-1C998,584.59,1013.74,555.06,1006,530.23Z"/><path class="cls-1" d="M778.13,907c-4.08,5.82.58,28,6.4,49.5s18.65,34.35,21.56,69.89c2.91,34.95,3.49,39.61-6.41,60s-12.82,39,21.55,39.61,53-.59,87.94,4.66,47.61,5.24,66.83,2.32,22.87-7.57,14.71-13.39-41.93-12.23-56.49-23.88c-14-10.48-53.59-28-54.16-32.61a601.67,601.67,0,0,1,.57-91.45c2.92-18.64,7-45.43,8.16-52.42s7-14-2.92-11.65a337.38,337.38,0,0,1-75.13,5.83C782.79,911.71,779.88,905.3,778.13,907Z"/><path class="cls-1" d="M719.8,563c-3.49-19.22-4.65-29.12-8.15-43.69a192.59,192.59,0,0,1-50.56-41.76,75.51,75.51,0,0,1-15.28,7.74c15.15,23.29,7,40.76,44.85,85.61l-.07.15a122.05,122.05,0,0,1,26.32,4.76c.38-4.12.77-7.84,1.15-12.81Z"/><path class="cls-1" d="M657.68,863c6.92-9.43,14.89-17.92,22.43-28.2-15.44-62.25.71-120.73,19.13-173.64A38.42,38.42,0,0,1,676,650.7a8.47,8.47,0,0,1,1.16-7,83.76,83.76,0,0,1-15.72-17.47A29.54,29.54,0,0,1,659,609.79c-44.84-37.73-111.09-42.44-132.62-92.46-5.55-12.62-13.28-29.59-9.58-40.35-2.53,1-5.34,2.06-8.46,3.07C480,488.82,390.62,534.4,326.36,570c22.34,23.51,33.5,63.78,37.49,104.62,7.57,78,46.6,118.82,146.78,116.49,41.3-.94,71.1,8.14,93.83,23.88l.46.32,1.72,1.23a134.74,134.74,0,0,1,31.28,32.2l.84,1.19A33.56,33.56,0,0,0,657.68,863Z"/><path class="cls-1" d="M298.78,474c-42.52,26.21-132.21,85.62-149.69,199.2,25.35-28.08,63.63-59,111.79-89.62l0-.11c1.94-1.21,3.91-2.43,5.91-3.64q18.31-11.46,38.43-22.82c21.95-12.38,45.41-24.58,70.16-36.38,17.33-8.7,34.42-17,50.55-24.72,51.6-24.63,93.34-42.85,101.45-46.36,3-6.17,5.68-14,9-26.25.86-3.13,1.79-6,2.79-8.61,10.46-27.69,27.67-28.77,35.65-29.83,0-.79.11-1.56.17-2.32a56.51,56.51,0,0,1,10.3-28.36C495,379.53,401.3,410.87,298.78,474Z"/><path class="cls-1" d="M925,348c-6.4-7-7.61-10.66-21-6-2.28-6.18-9-12.52-13-12-9.7-6.48-20.12-8.3-31.58-1-8.17,5.24-25,15.72-35.52,13.4a502,502,0,0,1-67-19.22l-.09,1.15a68.78,68.78,0,0,0-5-5,44.26,44.26,0,0,0-13.57-8.26,76.11,76.11,0,0,0-21.56-4.56,14.46,14.46,0,0,0-6.57,1.09c-4.74,1.93-8.55,5.94-12.65,8.81a37.15,37.15,0,0,1,4.13,5.32,37.78,37.78,0,0,1,3.45,6.91,49.13,49.13,0,0,0-6.3-6.11,48.42,48.42,0,0,0-17.59-9c-8.69-1.73-14.49,4.59-23.72,9.24a76.36,76.36,0,0,1,26,4,50.51,50.51,0,0,1,14.18,7.61q7.13,1.79,14.37,3a186,186,0,0,0,24.5,2.46c2.53.08,5.06.12,7.59.1,7.69-.64,16.86-1.28,26.66-1.55l1.85-.43-.29-.36c14.46,1,22.76,5,41.65,9.44,25,5.82,30.87-4.08,60-7.58a28.75,28.75,0,0,1,16.31,5.24l.73.34c7.34,5.23,18.76,11.35,30.39,9.63,7.73-1,13.8.47,21.59.28C941.83,350.92,940,347,925,348Z"/></g></g></svg>