<svg xmlns="http://www.w3.org/2000/svg" viewBox="0 0 1272 1272"><defs><style>.cls-1{fill:#111111;}</style></defs><title>Recurso 4</title><g id="Capa_2" data-name="Capa 2"><g id="Capa_1-2" data-name="Capa 1"><path class="cls-1" d="M0,0V1272H1272V0ZM1002.9,1042.93,635.45,1144.8,269,1043.08,187.37,127.2h897.26Z"/><path class="cls-1" d="M636,1066.86v-.1l296.91-82.31,69.86-782.55H636v.1H269.23l69.86,782.54ZM636,315H916.69L914,345l-5.1,56.8L906.66,427H477l10.27,115.08h409.2l-2.73,30.09-26.33,295-1.68,18.93L636,949.83v1l-.52.14L405.39,887.07,389.65,710.71H502.41l8,89.58,125.1,33.78.49-.14v-.69l125-33.73,13-145.34H385l-27.57-309.1L354.73,315Z"/></g></g></svg>