<svg xmlns="http://www.w3.org/2000/svg" viewBox="0 0 1272 1272"><defs><style>.cls-1{fill:#111111;}</style></defs><title>Recurso 8</title><g id="Capa_2" data-name="Capa 2"><g id="Capa_1-2" data-name="Capa 1"><path class="cls-1" d="M1114,171H157v931h957ZM729.9,838H657.78a5.62,5.62,0,0,1-6.54-3.92L615.52,703H476.43L442,833.65a5.13,5.13,0,0,1-5.68,4.52,5,5,0,0,1-.86-.17H371.63c-4.35,0-5.22-1.3-4.35-6.52L490.72,399.42a141.07,141.07,0,0,0,4.35-36.07,3.5,3.5,0,0,1,3.47-4.35h91.4a4.54,4.54,0,0,1,5.17,3.8c0,.18,0,.37,0,.55l138.22,469C734.25,835.83,733.38,838,729.9,838Zm143,0a4.18,4.18,0,0,1-2.05,0H803.63a4.88,4.88,0,0,1-5.63-5.66V490h-.23a4.52,4.52,0,0,1,3.52-5.34A10.5,10.5,0,0,0,803,484H870.8a4.46,4.46,0,0,1,5.2,5.23V832.78A4.31,4.31,0,0,1,872.85,838ZM836.48,435.49c-25.23,0-43.49-15.62-43.49-44.35a44.36,44.36,0,0,1,88.72,0C881.71,419.84,863,435.49,836.48,435.49Z"/><path class="cls-1" d="M544.68,429c-9.12,50.78-32.12,136.72-50.35,204H597.2C585,584.81,556.4,479.78,545.55,429Z"/><path class="cls-1" d="M0,0V1272H1272V0ZM1158,1145H114V127H1158Z"/></g></g></svg>