<svg xmlns="http://www.w3.org/2000/svg" viewBox="0 0 1272 1272"><defs><style>.cls-1{fill:#111111;}</style></defs><title>Recurso 13</title><g id="Capa_2" data-name="Capa 2"><g id="Capa_1-2" data-name="Capa 1"><path class="cls-1" d="M1049.19,979.65a47.94,47.94,0,0,0-39.71-16.33,60.89,60.89,0,0,0-42.64,16.2,49.75,49.75,0,0,0-17.66,37.72,85.5,85.5,0,0,0,16.6,53.39,50.87,50.87,0,0,0,42.1,21.78h0a48.58,48.58,0,0,0,40.37-17.66,78.92,78.92,0,0,0,14.07-50.33A69.51,69.51,0,0,0,1049.19,979.65Z"/><path class="cls-1" d="M0,0V1272H1272V0ZM517,831.85H375.69v85.54H507.08v66.93H375.69v100.41H517v68.17H293.87v-388H517Zm272.3,295.88Q751.46,1158,684,1158a247.41,247.41,0,0,1-110-23.38v-76.47a453,453,0,0,0,66.53,24.7,197,197,0,0,0,49.81,7.17,70.66,70.66,0,0,0,41.56-10.36,35.41,35.41,0,0,0,14.48-30.81,34,34,0,0,0-6.38-20.31,71.24,71.24,0,0,0-18.72-17.13A482.2,482.2,0,0,0,671,985.13,238.31,238.31,0,0,1,617.57,953a120.47,120.47,0,0,1-28.38-35.85,102.36,102.36,0,0,1-10.63-47.81,100.38,100.38,0,0,1,34.93-81q34.92-29.47,96.56-29.47A228.31,228.31,0,0,1,767.82,766a400,400,0,0,1,57.5,20.19l-26.56,64a386.92,386.92,0,0,0-51.4-17.8,165.78,165.78,0,0,0-40-5,53,53,0,0,0-35.86,10.89,35.93,35.93,0,0,0-12.48,28.42,35.15,35.15,0,0,0,5,19,55.71,55.71,0,0,0,16.08,15.67,495.09,495.09,0,0,0,52.19,27.22q54.43,26,74.63,52.19a101.86,101.86,0,0,1,20.16,64.12A100.35,100.35,0,0,1,789.3,1127.73Zm317.49-5.6q-35.05,36.27-97.2,36.27a139,139,0,0,1-75-19.93,129.3,129.3,0,0,1-49.42-58.16,221.62,221.62,0,0,1-17.37-92.16h0q0-115.29,48.74-171.59t146-56.32a265.24,265.24,0,0,1,52,3.94v65.61a213.19,213.19,0,0,0-46.75-5.31,160.42,160.42,0,0,0-68.92,12.75,85.67,85.67,0,0,0-40,37.71,173.28,173.28,0,0,0-15.67,71h3.45q26.31-45.17,84.21-45.16,52,0,81.54,32.68t29.48,90.31Q1141.85,1085.86,1106.79,1122.13Z"/></g></g></svg>