<svg xmlns="http://www.w3.org/2000/svg" viewBox="0 0 2166.11 1276.14"><defs><style>.cls-1{fill:#242424;}.cls-2{fill:#f4f4f4;}.cls-3{fill:#d7d7d7;}.cls-4{fill:#8d8d8e;}.cls-5{fill:#504f4f;}.cls-6{fill:#5f5f5e;}.cls-7{fill:#d23030;}.cls-8{fill:#fec937;}.cls-9{fill:#47ad3b;}.cls-10{opacity:0.4;}.cls-11{fill:#6ac9f3;}.cls-12{fill:#ec65a1;}.cls-13{fill:#ee7577;}.cls-14{fill:#52bdbe;}.cls-15{fill:#ea8c5d;}</style></defs><title>muckup</title><g id="Capa_2" data-name="Capa 2"><g id="Capa_1-2" data-name="Capa 1"><path class="cls-1" d="M22.45,141.14H871.2a22.45,22.45,0,0,1,22.45,22.45v61.27a0,0,0,0,1,0,0H0a0,0,0,0,1,0,0V163.58A22.45,22.45,0,0,1,22.45,141.14Z"/><rect class="cls-2" y="217.32" width="893.65" height="1058.81"/><rect class="cls-3" x="30.76" y="245.14" width="832.13" height="74.27"/><rect class="cls-4" x="30.76" y="348.14" width="533" height="261.87"/><rect class="cls-4" x="30.76" y="638.74" width="533" height="261.87"/><rect class="cls-5" x="591.76" y="348.14" width="271.13" height="898"/><rect class="cls-6" x="30.76" y="930.82" width="253" height="315.32"/><rect class="cls-3" x="311.26" y="930.82" width="253" height="315.32"/><circle class="cls-7" cx="44.26" cy="182.99" r="13.5"/><circle class="cls-8" cx="85.26" cy="182.99" r="13.5"/><circle class="cls-9" cx="126.26" cy="182.99" r="13.5"/><path class="cls-10" d="M871.2,141.14H22.45A22.44,22.44,0,0,0,0,163.58V1276.14H893.65V163.58A22.44,22.44,0,0,0,871.2,141.14Z"/><path class="cls-1" d="M1294.91,141.14h848.76a22.45,22.45,0,0,1,22.45,22.45v61.27a0,0,0,0,1,0,0H1272.46a0,0,0,0,1,0,0V163.58A22.45,22.45,0,0,1,1294.91,141.14Z"/><rect class="cls-2" x="1272.46" y="217.32" width="893.65" height="1058.81"/><rect class="cls-3" x="1303.22" y="245.14" width="832.13" height="74.27"/><rect class="cls-4" x="1303.22" y="348.14" width="533" height="261.87"/><rect class="cls-4" x="1303.22" y="638.74" width="533" height="261.87"/><rect class="cls-5" x="1864.22" y="348.14" width="271.13" height="898"/><rect class="cls-6" x="1303.22" y="930.82" width="253" height="315.32"/><rect class="cls-3" x="1583.72" y="930.82" width="253" height="315.32"/><circle class="cls-7" cx="1316.72" cy="182.99" r="13.5"/><circle class="cls-8" cx="1357.72" cy="182.99" r="13.5"/><circle class="cls-9" cx="1398.72" cy="182.99" r="13.5"/><path class="cls-10" d="M2143.66,141.14H1294.91a22.44,22.44,0,0,0-22.45,22.44V1276.14h893.65V163.58A22.44,22.44,0,0,0,2143.66,141.14Z"/><path class="cls-1" d="M658.68,0h848.76a22.45,22.45,0,0,1,22.45,22.45V83.72a0,0,0,0,1,0,0H636.23a0,0,0,0,1,0,0V22.45A22.45,22.45,0,0,1,658.68,0Z"/><rect class="cls-2" x="636.23" y="76.19" width="893.65" height="1058.81"/><rect class="cls-11" x="666.99" y="104" width="832.13" height="74.27"/><rect class="cls-12" x="666.99" y="207" width="533" height="261.87"/><rect class="cls-12" x="666.99" y="497.6" width="533" height="261.87"/><rect class="cls-13" x="1227.99" y="207" width="271.13" height="898"/><rect class="cls-14" x="666.99" y="789.68" width="253" height="315.32"/><rect class="cls-15" x="947.49" y="789.68" width="253" height="315.32"/><circle class="cls-7" cx="680.49" cy="41.86" r="13.5"/><circle class="cls-8" cx="721.49" cy="41.86" r="13.5"/><circle class="cls-9" cx="762.49" cy="41.86" r="13.5"/></g></g></svg>