<svg xmlns="http://www.w3.org/2000/svg" viewBox="0 0 1272 1272"><defs><style>.cls-1{fill:#111111;}</style></defs><title>Recurso 12</title><g id="Capa_2" data-name="Capa 2"><g id="Capa_1-2" data-name="Capa 1"><path class="cls-1" d="M0,0V1272H1272V0ZM710,981.73c0,.17,0,.35,0,.52,0,0-.52.26-1.45.77a344.13,344.13,0,0,1-32.71,26.76c-6.43,7.84-11.84,17.22-14.07,28-7.93,34.35-2.65,107-2.65,107l-27.09-9.25s1.77-74.19-16.79-117.71c-26.09-19-218.88-168-206.55-417.53,12.54-267.61,169.81-399.1,200.21-422.9,19.82-21.14,20.48-29.08,21.81-50.24a22.09,22.09,0,0,1,1.27,4l0-1.3A334,334,0,0,0,661.74,188C675.61,217.73,801.82,295,855.34,530.93,896.94,774.05,774.17,922.55,710,981.73Z"/></g></g></svg>