<svg xmlns="http://www.w3.org/2000/svg" viewBox="0 0 1272 1272"><defs><style>.cls-1{fill:#111111;}</style></defs><title>Recurso 7</title><g id="Capa_2" data-name="Capa 2"><g id="Capa_1-2" data-name="Capa 1"><path class="cls-1" d="M0,0V1272H1272V0ZM1098,851.49a79.16,79.16,0,0,1-42.49,68.9q-189.54,106.86-379,213.79a82.88,82.88,0,0,1-84.21-2.35q-56.82-32.94-113.71-65.75a66.93,66.93,0,0,1-21.94-15.79c4.83-6.51,13.47-7.32,20.5-10.17a265.42,265.42,0,0,0,44.89-20.92,10.48,10.48,0,0,1,11.68.7c32.42,18.57,64.49,37.69,97,56.08,6.94,4,14-1.31,19.88-4.61q186-105.12,372.09-210a12.3,12.3,0,0,0,6.76-12.11q.13-213.24,0-426.51a13.37,13.37,0,0,0-7.94-13.3Q832.7,303.11,643.91,196.62a13.13,13.13,0,0,0-14.83,0Q440.25,303,251.49,409.57a13.18,13.18,0,0,0-8,13.24q0,213.24,0,426.54a12.09,12.09,0,0,0,6.84,12q50.4,28.61,100.85,57c18.95,10.17,42.19,16.25,63.06,8.44a47.84,47.84,0,0,0,31-44.94c.17-141.33-.09-282.69.13-424a10.64,10.64,0,0,1,10.36-10.91c.41,0,.83,0,1.23,0,16.14-.1,32.31-.21,48.45.05a11.17,11.17,0,0,1,10.66,11.67,10.37,10.37,0,0,1-.12,1.25c-.07,142.23.18,284.45-.11,426.68,0,37.9-15.53,79.15-50.59,97.7-43.22,22.37-96.58,17.62-139.25-3.82-36.94-18.43-72.19-40.2-108.48-59.95a79,79,0,0,1-42.51-69V420.56a78.44,78.44,0,0,1,40.9-68.29q189.51-106.93,379-214a85.29,85.29,0,0,1,83.27,0q190.14,107.43,380.31,214.82A78.28,78.28,0,0,1,1098,420.56ZM867.08,712.21C863.17,698,848.29,691.35,835.51,687c-65.58-20.75-136.74-13.22-201.71-36.67-26.37-9.33-51.86-26.94-62-54-14.14-38.34-7.63-85.76,22.1-115.12,29-29.21,70.9-40.46,110.72-44.48h0c55.12-3.54,114.14-2.1,163.74,25,38.41,20.81,59.7,64.48,60.38,107.16a11.6,11.6,0,0,1-12.58,8.54c-16,0-32,.21-48-.11a12.37,12.37,0,0,1-11.57-12c-4.6-20.42-15.74-40.64-35-50.48-29.5-14.77-63.7-14-95.86-13.72-23.49,1.27-48.74,3.28-68.63,17.09a43.49,43.49,0,0,0-14.46,48.58c5.14,12.21,19.23,16.15,30.76,19.78,66.44,17.37,136.83,15.64,202,38.51,27,9.32,53.38,27.43,62.61,55.69,12.09,37.85,6.79,83.1-20.15,113.5-21.84,25-53.66,38.62-85.39,46a410.32,410.32,0,0,1-128.88,5.47c-40.31-4.6-82.25-15.19-113.37-42.65a119,119,0,0,1-38.32-93.86,10.77,10.77,0,0,1,11.78-9.48c16.1-.13,32.21-.17,48.33,0a11.3,11.3,0,0,1,11.53,11V711c3,19.45,10.29,39.87,27.25,51.4,32.73,21.11,73.81,19.67,111.3,20.26,31-1.38,65.91-1.79,91.25-22.32A50.41,50.41,0,0,0,867.08,712.21Z"/></g></g></svg>