<svg width="178" height="46" viewBox="0 0 178 46" fill="none" xmlns="http://www.w3.org/2000/svg">
<path d="M32.5764 3.40462C30.4858 1.02179 26.7068 0.000217997 21.8724 0.000217997H7.84149C7.36292 -3.67491e-05 6.89998 0.170522 6.53596 0.481197C6.17194 0.791871 5.93076 1.22226 5.8558 1.69492L0.0161287 38.7499C-0.010949 38.9218 -0.000439167 39.0975 0.0469347 39.265C0.0943086 39.4324 0.17742 39.5876 0.290543 39.7198C0.403666 39.8521 0.544111 39.9582 0.702203 40.0309C0.860294 40.1037 1.03227 40.1412 1.20629 40.1411H9.86839L12.0439 26.3424L11.9765 26.7746C12.05 26.3028 12.2896 25.8729 12.652 25.5622C13.0145 25.2515 13.476 25.0804 13.9534 25.0798H18.0697C26.156 25.0798 32.4878 21.7953 34.3373 12.294C34.3923 12.013 34.4397 11.7395 34.481 11.4723C35.0304 7.96046 34.4772 5.57014 32.5777 3.40587" fill="#003087"/>
<path d="M69.5328 21.0371C69.0033 24.514 66.3482 24.514 63.7793 24.514H62.3181L63.3434 18.0224C63.4059 17.6302 63.7431 17.3418 64.1402 17.3418H64.8108C66.5593 17.3418 68.2102 17.3418 69.062 18.3371C69.5715 18.9328 69.7251 19.817 69.5328 21.0371V21.0371ZM68.4151 11.9654H58.7289C58.067 11.9654 57.5025 12.4475 57.3989 13.1019L53.4837 37.938C53.4654 38.0531 53.4724 38.1709 53.5041 38.2831C53.5357 38.3954 53.5913 38.4994 53.6671 38.5881C53.7428 38.6767 53.8368 38.7479 53.9427 38.7968C54.0486 38.8456 54.1638 38.8709 54.2804 38.8709H58.9062C59.5681 38.8709 60.1314 38.3888 60.235 37.7344L61.2928 31.0343C61.3952 30.3799 61.9597 29.8978 62.6216 29.8978H65.6863C72.068 29.8978 75.7496 26.8106 76.7112 20.69C77.1446 18.0149 76.7287 15.9118 75.4761 14.4394C74.0986 12.8209 71.6571 11.9642 68.4163 11.9642L68.4151 11.9654ZM90.9033 29.954C90.4537 32.6041 88.3519 34.3837 85.6681 34.3837C84.3231 34.3837 83.2453 33.9504 82.5534 33.1311C81.8665 32.3193 81.6093 31.1617 81.8266 29.8741C82.2437 27.2465 84.3817 25.4106 87.0243 25.4106C88.3419 25.4106 89.4097 25.8477 90.1165 26.6745C90.8271 27.5075 91.1069 28.6714 90.9033 29.954V29.954ZM97.3674 20.9247H92.7291C92.5363 20.9245 92.3498 20.9932 92.2032 21.1185C92.0566 21.2438 91.9597 21.4174 91.9299 21.6079L91.7275 22.9042L91.4029 22.4346C90.3988 20.9772 88.1596 20.4889 85.9241 20.4889C80.8 20.4889 76.4228 24.3728 75.571 29.8179C75.1277 32.5366 75.7571 35.133 77.2982 36.9451C78.7132 38.6099 80.7326 39.303 83.1391 39.303C87.2704 39.303 89.5608 36.6504 89.5608 36.6504L89.3535 37.9392C89.3352 38.0545 89.3422 38.1724 89.3739 38.2847C89.4057 38.397 89.4614 38.5011 89.5372 38.5898C89.6131 38.6785 89.7073 38.7496 89.8134 38.7984C89.9194 38.8471 90.0348 38.8723 90.1515 38.8721H94.3277C94.9896 38.8721 95.5541 38.3913 95.6577 37.7357L98.1654 21.8589C98.1835 21.7435 98.1763 21.6256 98.1444 21.5133C98.1125 21.401 98.0567 21.2969 97.9807 21.2083C97.9048 21.1196 97.8105 21.0485 97.7044 20.9997C97.5983 20.951 97.4829 20.9258 97.3662 20.926" fill="#595959"/>
<path d="M122.071 20.926H117.408C116.962 20.926 116.546 21.1471 116.296 21.5167L109.865 30.9881L107.138 21.8864C107.055 21.6088 106.885 21.3653 106.652 21.1921C106.42 21.0189 106.138 20.9252 105.848 20.9248H101.266C101.138 20.9248 101.011 20.9555 100.897 21.0143C100.783 21.0731 100.684 21.1583 100.609 21.2628C100.535 21.3674 100.486 21.4882 100.467 21.6153C100.449 21.7424 100.46 21.8722 100.502 21.9938L105.635 37.0625L100.807 43.8751C100.721 43.996 100.671 44.138 100.661 44.2857C100.651 44.4333 100.681 44.5809 100.749 44.7124C100.817 44.8438 100.92 44.954 101.047 45.031C101.173 45.108 101.318 45.1488 101.466 45.1489H106.124C106.564 45.1489 106.977 44.9329 107.23 44.5707L122.733 22.1936C122.817 22.0726 122.867 21.9309 122.876 21.7839C122.885 21.6368 122.854 21.49 122.786 21.3594C122.718 21.2287 122.615 21.1193 122.489 21.0429C122.363 20.9665 122.218 20.9261 122.071 20.926" fill="#595959"/>
<path d="M138.62 21.0371C138.09 24.5139 135.435 24.5139 132.868 24.5139H131.406L132.432 18.0224C132.494 17.6302 132.831 17.3417 133.229 17.3417H133.899C135.648 17.3417 137.299 17.3417 138.15 18.3371C138.659 18.9328 138.812 19.817 138.62 21.0371V21.0371ZM137.502 11.9654H127.816C127.495 11.9655 127.185 12.08 126.941 12.2883C126.697 12.4966 126.535 12.785 126.485 13.1018L122.571 37.938C122.553 38.0531 122.56 38.1708 122.592 38.2829C122.623 38.395 122.679 38.499 122.755 38.5876C122.83 38.6762 122.924 38.7474 123.03 38.7963C123.136 38.8452 123.251 38.8706 123.368 38.8708H128.338C128.801 38.8708 129.196 38.5337 129.268 38.0766L130.38 31.033C130.482 30.3798 131.047 29.8965 131.709 29.8965H134.773C141.155 29.8965 144.837 26.8106 145.798 20.6899C146.232 18.0149 145.816 15.9118 144.563 14.4394C143.186 12.8209 140.744 11.9641 137.503 11.9641" fill="#C1C1C1"/>
<path d="M159.99 29.954C159.541 32.6041 157.439 34.3837 154.755 34.3837C153.41 34.3837 152.332 33.9504 151.64 33.1311C150.954 32.3193 150.696 31.1617 150.914 29.8741C151.331 27.2465 153.467 25.4106 156.111 25.4106C157.429 25.4106 158.497 25.8477 159.204 26.6745C159.914 27.5075 160.194 28.6714 159.99 29.954V29.954ZM166.454 20.9247H161.816C161.623 20.9245 161.437 20.9932 161.29 21.1185C161.144 21.2438 161.047 21.4174 161.017 21.6079L160.815 22.9042L160.49 22.4346C159.486 20.9772 157.247 20.4889 155.011 20.4889C149.888 20.4889 145.511 24.3728 144.658 29.8179C144.215 32.5366 144.845 35.133 146.386 36.9451C147.801 38.6099 149.821 39.303 152.227 39.303C156.36 39.303 158.65 36.6504 158.65 36.6504L158.443 37.9392C158.424 38.0544 158.431 38.1722 158.462 38.2845C158.494 38.3968 158.549 38.501 158.625 38.5897C158.701 38.6785 158.795 38.7497 158.901 38.7985C159.007 38.8472 159.122 38.8724 159.238 38.8721H163.413C164.075 38.8721 164.64 38.3913 164.745 37.7357L167.252 21.8589C167.27 21.7435 167.263 21.6256 167.231 21.5133C167.2 21.401 167.144 21.2969 167.068 21.2083C166.992 21.1196 166.897 21.0485 166.791 20.9997C166.685 20.951 166.57 20.9258 166.453 20.926" fill="#C1C1C1"/>
<path d="M171.921 12.6485L167.944 37.9392C167.926 38.0544 167.933 38.1722 167.965 38.2844C167.997 38.3966 168.053 38.5007 168.128 38.5893C168.204 38.6779 168.298 38.7491 168.404 38.7979C168.51 38.8467 168.626 38.872 168.742 38.8721H172.74C173.402 38.8721 173.966 38.39 174.07 37.7356L177.99 12.8983C178.008 12.783 178.001 12.6651 177.97 12.5528C177.938 12.4405 177.882 12.3364 177.806 12.2477C177.73 12.159 177.636 12.0878 177.53 12.0391C177.424 11.9903 177.309 11.9652 177.192 11.9654H172.719C172.526 11.9649 172.34 12.0334 172.193 12.1585C172.047 12.2836 171.95 12.457 171.921 12.6472" fill="#C1C1C1"/>
<path d="M32.5764 3.40462C30.4858 1.02179 26.7068 0.000217997 21.8724 0.000217997H7.84149C7.36292 -3.67491e-05 6.89998 0.170522 6.53596 0.481197C6.17194 0.791871 5.93076 1.22226 5.8558 1.69492L0.0161287 38.7499C-0.010949 38.9218 -0.000439167 39.0975 0.0469347 39.265C0.0943086 39.4324 0.17742 39.5876 0.290543 39.7198C0.403666 39.8521 0.544111 39.9582 0.702203 40.0309C0.860294 40.1037 1.03227 40.1412 1.20629 40.1411H9.86839L12.0439 26.3424L11.9765 26.7746C12.05 26.3028 12.2896 25.8729 12.652 25.5622C13.0145 25.2515 13.476 25.0804 13.9534 25.0798H18.0697C26.156 25.0798 32.4878 21.7953 34.3373 12.294C34.3923 12.013 34.4397 11.7395 34.481 11.4723C35.0304 7.96046 34.4772 5.57014 32.5777 3.40587" fill="#003087"/>
<path d="M14.3805 11.5182C14.4462 11.1052 14.6568 10.7292 14.9747 10.4575C15.2927 10.1858 15.697 10.0363 16.1152 10.0358H27.1151C28.4177 10.0358 29.6329 10.1208 30.7431 10.2981C31.3501 10.3958 31.9507 10.5301 32.5414 10.7002C33.2124 10.8889 33.8616 11.1476 34.4784 11.472C35.0304 7.959 34.4759 5.56993 32.5764 3.4044C30.4846 1.02282 26.7068 0.00125044 21.8724 0.00125044H7.84023C7.36209 0.00159026 6.89974 0.172415 6.53624 0.483037C6.17274 0.793658 5.93192 1.22372 5.85703 1.69596L0.0148612 38.7472C-0.0123997 38.9191 -0.00206951 39.0948 0.0451408 39.2623C0.0923511 39.4298 0.175319 39.5851 0.288326 39.7175C0.401333 39.8498 0.541694 39.9561 0.699735 40.029C0.857776 40.1019 1.02974 40.1396 1.20378 40.1396H9.86713L12.0426 26.3397L14.3805 11.5182Z" fill="#595959"/>
<path d="M34.4796 11.4709C34.4368 11.7457 34.3889 12.0196 34.336 12.2926C32.4864 21.7927 26.1547 25.0785 18.0683 25.0785H13.9508C13.4735 25.0788 13.012 25.2498 12.6497 25.5606C12.2874 25.8714 12.0481 26.3015 11.9751 26.7732L9.86706 40.1385L9.26761 43.93C9.24377 44.0806 9.25286 44.2345 9.29425 44.3811C9.33564 44.5278 9.40834 44.6638 9.50735 44.7796C9.60636 44.8955 9.72931 44.9885 9.86773 45.0523C10.0062 45.116 10.1568 45.149 10.3092 45.1489H17.6113C18.4755 45.1489 19.2098 44.5195 19.3459 43.6665L19.4171 43.2944L20.7933 34.5723L20.8808 34.0903C20.9462 33.6769 21.157 33.3005 21.4752 33.0288C21.7935 32.757 22.1982 32.6078 22.6167 32.6079H23.7094C30.783 32.6079 36.3217 29.7355 37.9402 21.4231C38.6146 17.9512 38.2649 15.0501 36.479 13.0132C35.912 12.3817 35.2344 11.859 34.4796 11.4709" fill="#C1C1C1"/>
<path d="M32.5427 10.7003C32.2605 10.6167 31.9695 10.5417 31.6698 10.4756C31.37 10.4094 31.0603 10.3507 30.7431 10.3007C29.6316 10.1196 28.4177 10.0347 27.1139 10.0347H16.1152C15.6965 10.0342 15.2915 10.1835 14.9734 10.4556C14.6552 10.7277 14.4449 11.1047 14.3805 11.5184L12.0427 26.3423L11.9752 26.7732C12.0482 26.3015 12.2875 25.8714 12.6498 25.5606C13.0121 25.2498 13.4736 25.0788 13.9509 25.0785H18.0684C26.1548 25.0785 32.4865 21.794 34.3361 12.2926C34.391 12.0117 34.4372 11.7394 34.4797 11.4709C33.9912 11.2153 33.4825 11.0006 32.9586 10.829C32.8225 10.784 32.6838 10.7416 32.5427 10.6991" fill="#808080"/>
</svg>
