<svg width="137" height="35" viewBox="0 0 137 35" fill="none" xmlns="http://www.w3.org/2000/svg">
<path d="M25.073 2.62024C23.4639 0.786264 20.5553 -2.86039e-06 16.8345 -2.86039e-06H6.0354C5.66706 -0.000198929 5.31075 0.131074 5.03058 0.370189C4.75041 0.609303 4.56478 0.940558 4.50709 1.30435L0.012507 29.8242C-0.00833375 29.9565 -0.000244743 30.0917 0.0362172 30.2206C0.0726791 30.3495 0.136647 30.4689 0.223714 30.5707C0.31078 30.6725 0.418876 30.7542 0.540553 30.8101C0.66223 30.8661 0.794597 30.8951 0.928533 30.895H7.59543L9.26984 20.2746L9.21794 20.6072C9.27452 20.2441 9.45891 19.9132 9.73789 19.6741C10.0169 19.4349 10.3721 19.3033 10.7395 19.3029H13.9076C20.1314 19.3029 25.0047 16.7749 26.4283 9.46207C26.4706 9.2458 26.5071 9.0353 26.5388 8.8296C26.9617 6.1267 26.5359 4.28696 25.0739 2.6212" fill="#003087"/>
<path d="M106.691 16.1915C106.283 18.8675 104.24 18.8675 102.263 18.8675H101.139L101.928 13.8711C101.976 13.5693 102.236 13.3473 102.541 13.3473H103.057C104.403 13.3473 105.674 13.3473 106.329 14.1134C106.72 14.5719 106.839 15.2524 106.691 16.1915V16.1915ZM105.83 9.20931H98.3753C98.1284 9.20944 97.8896 9.29756 97.7018 9.45787C97.5141 9.61818 97.3896 9.84018 97.3507 10.084L94.3383 29.1994C94.3244 29.2881 94.3299 29.3786 94.3543 29.4649C94.3787 29.5512 94.4216 29.6312 94.4798 29.6994C94.5381 29.7677 94.6104 29.8224 94.6918 29.8601C94.7732 29.8977 94.8618 29.9173 94.9515 29.9174H98.7771C99.1337 29.9174 99.4375 29.6579 99.4932 29.3061L100.349 23.8849C100.427 23.3822 100.862 23.0103 101.371 23.0103H103.73C108.642 23.0103 111.476 20.6351 112.216 15.9243C112.549 13.8654 112.229 12.2467 111.265 11.1135C110.205 9.86774 108.326 9.20835 105.831 9.20835" fill="#009CDE"/>
<path d="M53.5168 16.1915C53.1092 18.8674 51.0657 18.8674 49.0885 18.8674H47.9639L48.7531 13.8711C48.8011 13.5693 49.0607 13.3473 49.3663 13.3473H49.8825C51.2282 13.3473 52.4989 13.3473 53.1544 14.1133C53.5466 14.5718 53.6648 15.2524 53.5168 16.1915V16.1915ZM52.6565 9.20929H45.2014C44.692 9.20929 44.2575 9.58031 44.1777 10.084L41.1644 29.1994C41.1503 29.2881 41.1557 29.3787 41.1801 29.4651C41.2044 29.5514 41.2472 29.6315 41.3055 29.6998C41.3638 29.768 41.4362 29.8228 41.5177 29.8604C41.5992 29.898 41.6879 29.9174 41.7776 29.9174H45.3379C45.8473 29.9174 46.2809 29.5464 46.3606 29.0427L47.1748 23.8859C47.2536 23.3822 47.6881 23.0112 48.1975 23.0112H50.5563C55.468 23.0112 58.3017 20.6351 59.0418 15.9242C59.3753 13.8653 59.0552 12.2467 58.0911 11.1134C57.0309 9.86771 55.1518 9.20832 52.6575 9.20832L52.6565 9.20929ZM69.9649 23.0544C69.6188 25.0941 68.0011 26.4638 65.9355 26.4638C64.9003 26.4638 64.0708 26.1303 63.5383 25.4997C63.0096 24.875 62.8116 23.9839 62.9789 22.9929C63.2999 20.9706 64.9455 19.5576 66.9794 19.5576C67.9934 19.5576 68.8153 19.894 69.3593 20.5303C69.9062 21.1714 70.1216 22.0673 69.9649 23.0544V23.0544ZM74.9401 16.105H71.3702C71.2217 16.1048 71.0782 16.1577 70.9653 16.2541C70.8525 16.3505 70.7779 16.4841 70.755 16.6307L70.5993 17.6285L70.3494 17.267C69.5766 16.1453 67.8531 15.7695 66.1326 15.7695C62.1888 15.7695 58.8197 18.7588 58.1642 22.9497C57.823 25.0422 58.3074 27.0405 59.4935 28.4353C60.5826 29.7165 62.1368 30.25 63.9891 30.25C67.1687 30.25 68.9316 28.2084 68.9316 28.2084L68.772 29.2004C68.758 29.2891 68.7634 29.3798 68.7878 29.4663C68.8122 29.5527 68.8551 29.6328 68.9135 29.7011C68.9719 29.7693 69.0444 29.8241 69.126 29.8616C69.2076 29.8992 69.2964 29.9185 69.3862 29.9184H72.6005C73.1099 29.9184 73.5444 29.5483 73.6242 29.0437L75.5543 16.8239C75.5682 16.7351 75.5626 16.6444 75.5381 16.558C75.5136 16.4715 75.4706 16.3914 75.4121 16.3232C75.3536 16.2549 75.2811 16.2002 75.1994 16.1627C75.1178 16.1252 75.029 16.1058 74.9391 16.1059" fill="#003087"/>
<path d="M123.139 23.0544C122.793 25.0941 121.175 26.4638 119.109 26.4638C118.074 26.4638 117.245 26.1303 116.712 25.4997C116.183 24.875 115.985 23.9839 116.153 22.9929C116.474 20.9706 118.118 19.5576 120.153 19.5576C121.167 19.5576 121.989 19.894 122.533 20.5303C123.08 21.1714 123.295 22.0673 123.139 23.0544V23.0544ZM128.114 16.105H124.544C124.396 16.1048 124.252 16.1577 124.139 16.2541C124.026 16.3505 123.952 16.4841 123.929 16.6307L123.773 17.6285L123.523 17.267C122.75 16.1453 121.027 15.7695 119.306 15.7695C115.363 15.7695 111.994 18.7588 111.338 22.9497C110.997 25.0422 111.482 27.0405 112.668 28.4353C113.757 29.7165 115.312 30.25 117.164 30.25C120.344 30.25 122.107 28.2084 122.107 28.2084L121.948 29.2004C121.933 29.289 121.938 29.3797 121.963 29.4661C121.987 29.5526 122.03 29.6327 122.088 29.701C122.146 29.7693 122.218 29.8242 122.3 29.8617C122.382 29.8992 122.47 29.9186 122.56 29.9184H125.773C126.283 29.9184 126.717 29.5483 126.798 29.0437L128.728 16.8239C128.742 16.7351 128.736 16.6444 128.712 16.558C128.687 16.4715 128.644 16.3914 128.586 16.3232C128.527 16.2549 128.455 16.2002 128.373 16.1627C128.292 16.1252 128.203 16.1058 128.113 16.1059" fill="#009CDE"/>
<path d="M93.9536 16.1059H90.3645C90.0213 16.1059 89.7012 16.276 89.509 16.5606L84.5588 23.8503L82.4605 16.8451C82.3965 16.6314 82.2653 16.444 82.0865 16.3107C81.9077 16.1774 81.6906 16.1053 81.4676 16.105H77.9409C77.842 16.105 77.7446 16.1286 77.6566 16.1739C77.5687 16.2191 77.4929 16.2847 77.4353 16.3652C77.3778 16.4456 77.3403 16.5386 77.3259 16.6364C77.3116 16.7343 77.3207 16.8342 77.3527 16.9277L81.3032 28.5256L77.5872 33.769C77.5215 33.862 77.4827 33.9714 77.4749 34.085C77.4671 34.1986 77.4907 34.3122 77.5431 34.4134C77.5954 34.5145 77.6746 34.5994 77.7718 34.6586C77.8691 34.7179 77.9808 34.7493 78.0947 34.7494H81.68C82.0183 34.7494 82.3365 34.5831 82.5307 34.3044L94.463 17.0815C94.5278 16.9884 94.5659 16.8794 94.5731 16.7662C94.5802 16.653 94.5563 16.54 94.5038 16.4394C94.4513 16.3389 94.3722 16.2547 94.2753 16.1959C94.1783 16.1371 94.067 16.106 93.9536 16.1059" fill="#003087"/>
<path d="M132.321 9.73504L129.26 29.2003C129.247 29.289 129.252 29.3797 129.277 29.4661C129.301 29.5525 129.344 29.6325 129.402 29.7007C129.461 29.7689 129.533 29.8237 129.615 29.8613C129.696 29.8989 129.785 29.9183 129.875 29.9184H132.951C133.461 29.9184 133.895 29.5473 133.975 29.0437L136.992 9.92728C137.006 9.83856 137.001 9.74784 136.977 9.6614C136.952 9.57495 136.909 9.49483 136.851 9.42657C136.792 9.35831 136.72 9.30353 136.638 9.26601C136.557 9.2285 136.468 9.20914 136.378 9.20927H132.935C132.787 9.20889 132.643 9.26162 132.531 9.3579C132.418 9.45418 132.344 9.58763 132.321 9.73408" fill="#009CDE"/>
<path d="M25.073 2.62024C23.4639 0.786264 20.5553 -2.86039e-06 16.8345 -2.86039e-06H6.0354C5.66706 -0.000198929 5.31075 0.131074 5.03058 0.370189C4.75041 0.609303 4.56478 0.940558 4.50709 1.30435L0.012507 29.8242C-0.00833375 29.9565 -0.000244743 30.0917 0.0362172 30.2206C0.0726791 30.3495 0.136647 30.4689 0.223714 30.5707C0.31078 30.6725 0.418876 30.7542 0.540553 30.8101C0.66223 30.8661 0.794597 30.8951 0.928533 30.895H7.59543L9.26984 20.2746L9.21794 20.6072C9.27452 20.2441 9.45891 19.9132 9.73789 19.6741C10.0169 19.4349 10.3721 19.3033 10.7395 19.3029H13.9076C20.1314 19.3029 25.0047 16.7749 26.4283 9.46207C26.4706 9.2458 26.5071 9.0353 26.5388 8.8296C26.9617 6.1267 26.5359 4.28696 25.0739 2.6212" fill="#003087"/>
<path d="M11.0681 8.86515C11.1187 8.54728 11.2808 8.25782 11.5255 8.04871C11.7702 7.83961 12.0814 7.72456 12.4033 7.7242H20.8695C21.8721 7.7242 22.8073 7.78957 23.6618 7.92606C24.129 8.00122 24.5912 8.10458 25.0459 8.23557C25.5623 8.38075 26.062 8.57985 26.5368 8.82959C26.9616 6.12573 26.5349 4.28695 25.0729 2.62022C23.4628 0.787211 20.5552 0.000945592 16.8344 0.000945592H6.03433C5.66633 0.00120714 5.31047 0.132685 5.0307 0.371758C4.75093 0.610832 4.56558 0.941835 4.50794 1.3053L0.0114381 29.8222C-0.00954363 29.9545 -0.00159282 30.0898 0.0347432 30.2187C0.0710792 30.3477 0.134936 30.4672 0.221914 30.5691C0.308891 30.6709 0.416922 30.7527 0.53856 30.8088C0.660198 30.8649 0.792553 30.894 0.926502 30.894H7.59436L9.26878 20.2727L11.0681 8.86515Z" fill="#003087"/>
<path d="M26.5375 8.82865C26.5045 9.04013 26.4677 9.25099 26.427 9.46112C25.0035 16.773 20.1302 19.3019 13.9064 19.3019H10.7373C10.3699 19.3022 10.0147 19.4338 9.73586 19.673C9.457 19.9122 9.27286 20.2432 9.21667 20.6063L7.59416 30.893L7.13279 33.8113C7.11444 33.9271 7.12144 34.0456 7.15329 34.1585C7.18515 34.2713 7.2411 34.376 7.31731 34.4652C7.39351 34.5543 7.48814 34.6259 7.59468 34.675C7.70122 34.7241 7.81713 34.7494 7.93443 34.7494H13.5546C14.2197 34.7494 14.7849 34.2649 14.8897 33.6084L14.9445 33.322L16.0037 26.609L16.071 26.2379C16.1214 25.9198 16.2836 25.6301 16.5285 25.421C16.7735 25.2118 17.085 25.0969 17.4071 25.097H18.2481C23.6924 25.097 27.9553 22.8862 29.201 16.4885C29.7201 13.8163 29.4509 11.5835 28.0764 10.0157C27.64 9.52969 27.1185 9.1274 26.5375 8.82865" fill="#009CDE"/>
<path d="M25.0468 8.23556C24.8296 8.17116 24.6056 8.11349 24.375 8.06254C24.1443 8.0116 23.9059 7.96642 23.6617 7.92798C22.8063 7.7886 21.872 7.72324 20.8685 7.72324H12.4032C12.081 7.72284 11.7692 7.83775 11.5244 8.04719C11.2795 8.25663 11.1176 8.54676 11.0681 8.86515L9.2687 20.2746L9.2168 20.6062C9.27298 20.2432 9.45713 19.9121 9.73598 19.673C10.0148 19.4338 10.37 19.3021 10.7374 19.3019H13.9065C20.1303 19.3019 25.0036 16.7739 26.4271 9.46109C26.4694 9.24482 26.505 9.03528 26.5377 8.82862C26.1617 8.63191 25.7701 8.46666 25.3669 8.33456C25.2621 8.29996 25.1554 8.26728 25.0468 8.2346" fill="#012169"/>
</svg>
