<svg xmlns="http://www.w3.org/2000/svg" viewBox="0 0 1272 1272"><defs><style>.cls-1{fill:#111111;}</style></defs><title>Recurso 11</title><g id="Capa_2" data-name="Capa 2"><g id="Capa_1-2" data-name="Capa 1"><path class="cls-1" d="M0,0V1272H1272V0ZM636,1144.8C355,1144.8,127.2,917,127.2,636S355,127.29,636,127.2,1144.8,355,1144.8,636,917,1144.8,636,1144.8Z"/><path class="cls-1" d="M534.83,805.54a130.76,130.76,0,0,1-1.06,76.05,129,129,0,0,1-6.11,15,141.05,141.05,0,0,1-23.53,34.23c-29.53,32.23-70.83,44.44-88.54,34.19-19.13-11.09-9.54-56.56,24.72-92.78,36.89-39,89.9-64,89.9-64l-.08-.15,4.64-2.55ZM955,345C932,254.68,782.14,225,640.35,275.35,556,305.43,464.81,352.45,399.08,413.88,321,486.75,308.55,550.3,313.67,577,331.76,670.61,460.21,732,513,777.41v.28c-15.55,7.67-129.51,65.37-156.16,124.3-28.13,62.19,4.45,106.85,26.08,112.86,66.89,18.61,135.57-14.87,172.46-69.91C591,891.82,588,823.23,572.55,789.12a205.15,205.15,0,0,1,77.87-4.45c89.22,10.43,106.76,66.15,103.41,89.47a58.84,58.84,0,0,1-28.32,40c-6.26,3.88-8.16,5.21-7.63,8.09.76,4.19,3.66,4,9,3.13,7.34-1.24,46.85-19,48.55-62,2.15-54.65-50.2-115.75-142.94-114.17-38.16.64-62.2,4.29-79.56,10.75q-1.92-2.19-3.94-4.36C491.66,694.38,385.66,651.13,390.15,568.9c1.63-29.89,12-108.62,203.65-204.11,157-78.23,282.61-56.69,304.34-9C929.16,424,831,550.64,668,568.9c-62.1,7-94.81-17.11-103-26.08-8.56-9.44-9.83-9.86-13-8.09-5.21,2.89-1.91,11.22,0,16.19,4.86,12.67,24.83,35.12,58.88,46.3,30,9.84,102.86,15.24,191.07-18.87C900.69,540.14,977.84,433.89,955.17,345"/></g></g></svg>