<svg xmlns="http://www.w3.org/2000/svg" viewBox="0 0 1272 1272"><defs><style>.cls-1{fill:#111111;}</style></defs><title>Recurso 3</title><g id="Capa_2" data-name="Capa 2"><g id="Capa_1-2" data-name="Capa 1"><path class="cls-1" d="M0,0V1272H1272V0ZM1000.81,1110.48c-1.74,0-3.49,0-5.23,0H276.42a146.64,146.64,0,0,1-149.22-144c0-1.75,0-3.49,0-5.24V601.68h68.33a80.64,80.64,0,0,1,137.68-57H498.34l-53.57-53.58-63-63A80.34,80.34,0,0,1,340,416.35a80.61,80.61,0,1,1,122.42-68.92l108,108.06,8,8V298.9a80.84,80.84,0,1,1,114.58,0V464l17.34-17.35,99.25-99.25a80.64,80.64,0,0,1,115.53-72.68l.08,0A80.67,80.67,0,0,1,962.9,382.34a.8.8,0,0,1-.08.16A80.84,80.84,0,0,1,944.58,407l-.58.51A80.31,80.31,0,0,1,890.26,428l-65.44,65.44-51.16,51.17H938.79a80.64,80.64,0,0,1,137.68,57h68.33V961.25A146.63,146.63,0,0,1,1000.81,1110.48Z"/><path class="cls-1" d="M279.64,855.69A131.94,131.94,0,1,1,505,762.19H427.75a54.63,54.63,0,0,0-109.25.24c0,14.48,16,39.13,16,39.13h.18c9.86,9.89,18.06,12.76,38.48,16,36.32,3.8,69.16,14.72,92.95,38.5A131.44,131.44,0,1,1,241.69,949H318.2A54.34,54.34,0,1,0,411,910.59h0c-9.84-9.84-24-13.23-38.44-15.92v-.37s-68.73-14.78-92.87-38.64ZM768.71,631,675.44,1081.2H598.19L505,631h77.24l54.67,263.69L691.47,631ZM900.5,816.7h132.24V949h0c0,71-55.91,129-126,132-75.2,3.23-137.5-58-137.5-133.24V762.19h-.43c0-73,58.94-132.26,131.64-132.26s131.63,59.22,131.63,132.26H955a54.67,54.67,0,0,0-51.49-54.69c-31.39-1.73-57.54,24-57.54,55.4V949.17a54.52,54.52,0,1,0,109,0h0V894.44H900.5Z"/><path class="cls-1" d="M996,538a63.84,63.84,0,0,0-48.27,22H733.9L883.37,410.53A64,64,0,1,0,827,347q0,3.25.32,6.44L676,504.76V291.94a64,64,0,1,0-80,0V505L444.65,353.67A64,64,0,1,0,381,411a64.8,64.8,0,0,0,7.41-.44L537.85,560H324.27A64,64,0,0,0,212,602h848A64,64,0,0,0,996,538Z"/></g></g></svg>