<svg xmlns="http://www.w3.org/2000/svg" viewBox="0 0 1084.07 685.5"><defs><style>.cls-1{fill:#ffb217;}.cls-2{fill:#fff;}.cls-3{fill:#84329b;}.cls-4{fill:#ffa31d;}.cls-5{fill:#ff9408;}.cls-6{fill:#682c7c;}.cls-7{fill:#e8e8e8;}.cls-8{fill:#cb1615;}.cls-9{font-size:47.28px;}.cls-10,.cls-9{font-family:CourierNewPS-BoldMT, Courier New;font-weight:700;}.cls-10{font-size:60.75px;}</style></defs><title>equipo_2</title><g id="Capa_2" data-name="Capa 2"><g id="Capa_10" data-name="Capa 10"><path class="cls-1" d="M11,48.27h0v0Z"/><path class="cls-1" d="M11,48.3l-.2.19H11Z"/><path class="cls-1" d="M10.77,48.49h0v0h0Z"/><path class="cls-2" d="M173.2,381.75c-28.78-24-55.45-59.16-66.74-110.19a15.62,15.62,0,0,1,15.25-19h39.78a15.58,15.58,0,0,1,14.66,10.25c5.11,14.06,16.88,40,39.6,61"/><path class="cls-3" d="M215.75,323.79a119.3,119.3,0,0,0,57.75,29.68v77s-53-9.29-100.3-48.72"/><circle class="cls-2" cx="963" cy="163.02" r="98.92"/><circle class="cls-2" cx="652.59" cy="163.02" r="98.92"/><path class="cls-3" d="M962.43,298.94c-67,.24-120.78,55.54-120.78,122.53v243a21,21,0,0,0,21,21H1063a21,21,0,0,0,21-21V420.15A121.22,121.22,0,0,0,962.43,298.94Z"/><path class="cls-2" d="M652.16,298.94c-67,.24-120.78,55.54-120.78,122.53v243a21,21,0,0,0,21,21H752.77a21,21,0,0,0,21-21V420.15A121.22,121.22,0,0,0,652.16,298.94Z"/><path class="cls-2" d="M178,22.67c.26-.92.43-1,1.51-1a.79.79,0,0,1-.28,1.11A.88.88,0,0,1,178,22.67Z"/><path class="cls-1" d="M115.6,21.89c-.23,1-.34,1-1.44,1l-.1-.74C114.45,21.7,114.72,21.66,115.6,21.89Z"/><path class="cls-1" d="M92.25,104.74l.38-.67.18.15-.56.52Z"/><path class="cls-2" d="M183,15.77l.44-.22h0v.22H183Z"/><path class="cls-2" d="M179.69,18.62h-.44l.44-.21v.21Z"/><path class="cls-1" d="M88.08,26.75l.22-.22h0v.25l0,0h-.23Z"/><path class="cls-1" d="M87.86,27l.22-.23h0V27h-.21Z"/><path class="cls-1" d="M86.33,28.51l.22-.22h0v.22h-.22Z"/><path class="cls-1" d="M86.1,28.73l.23-.22h0v.24H86.1Z"/><path class="cls-1" d="M93.36,47.41l-.23-.23h.23v.23Z"/><path class="cls-2" d="M198.35,103.2v.23h0v-.25Z"/><path class="cls-1" d="M92.25,104.74V105H92v0l.22-.23Z"/><path class="cls-1" d="M92.25,105v.22h0V105Z"/><path class="cls-1" d="M90.94,106.5l.22-.22v.21h-.22Z"/><path class="cls-1" d="M89.84,107.82l.22-.23h0v.25l0,0h-.23Z"/><path class="cls-1" d="M89.61,108.05l.23-.23h0v.24l0,0H89.6Z"/><path class="cls-2" d="M203.62,110.23v.23h0v-.25Z"/><path class="cls-1" d="M84.35,115.06l.22-.22h0v.24h-.21Z"/><path class="cls-1" d="M84.35,115.29v-.23h0v.24Z"/><path class="cls-1" d="M82.37,117.71l.23-.23h0v.24h-.21Z"/><path class="cls-1" d="M83.69,119.46l-.23-.23h.22v.24Z"/><path class="cls-1" d="M85,120.77l-.23-.22H85v.23Z"/><path class="cls-1" d="M85.23,121l-.22-.23h.21V121Z"/><path class="cls-1" d="M89,124.72l-.23-.22v0H89v.21Z"/><path class="cls-1" d="M89.18,125l-.22-.23v0l.23,0V125Z"/><path class="cls-1" d="M90.28,126l-.23-.22h.22v.22Z"/><path class="cls-1" d="M90.5,126.26l-.22-.22h.21v.21Z"/><path class="cls-1" d="M90.72,126.49l-.22-.23v0h.22v.24Z"/><path class="cls-1" d="M92,127.8l-.23-.22H92v.23Z"/><path class="cls-1" d="M92.26,128,92,127.8h.21V128Z"/><path class="cls-2" d="M174.63,128.46l-.22-.22h.21v.23Z"/><path class="cls-1" d="M97.53,133.29l-.23-.22h.22v.22Z"/><path class="cls-1" d="M97.75,133.52l-.22-.23v0h.22v.24Z"/><path class="cls-1" d="M99.07,134.83l-.23-.22h.22v.23Z"/><path class="cls-1" d="M99.29,135.06l-.22-.23h.21v.24Z"/><path class="cls-1" d="M100.38,14.45l.23-.22h0v.24l0,0h-.23Z"/><path class="cls-1" d="M100.16,14.68l.22-.23h0v.24h-.21Z"/><path class="cls-2" d="M182.75,16l.23-.23h0V16h-.23Z"/><path class="cls-2" d="M179.24,18.61h0Z"/><path class="cls-1" d="M95.11,19.72l.22-.22h0v.25l0,0h-.23Z"/><path class="cls-1" d="M94.89,20l.22-.23h0V20h-.21Z"/><path class="cls-1" d="M116.19,100.57v-.24l.24.24Z"/><path class="cls-1" d="M90.27,25.66v-.23h.23v.23Z"/><path class="cls-1" d="M85.23,30.93H85V30.7h.24Z"/><path class="cls-2" d="M203.85,123.2h-.23V123h.23Z"/><path class="cls-1" d="M89.4,124.74h-.23v-.24h.23Z"/><path class="cls-2" d="M196.82,130.23h-.23V130h.23Z"/><path class="cls-2" d="M189.79,137.26h-.23V137h.23Z"/><path class="cls-1" d="M101.05,15.12h-.24v-.24h.24Z"/><path class="cls-1" d="M99.29,16.88h-.24v-.23h.24Z"/><path class="cls-1" d="M92.26,23.9H92v-.23h.24Z"/><path class="cls-1" d="M174.62,128.47h0Z"/><path class="cls-1" d="M116.89,22h0Z"/><path class="cls-1" d="M221,76.43q0-7.32,0-14.65a12.8,12.8,0,0,0-.15-1.29h-.08s0,0,0,0c-6.21-1-12.49-1.76-18.7-2.75-.5-1.22-1-2.42-1.49-3.6l-.1-.29h0L198,47.94l.6-1h0l1.12-1.56h0l1.09-1.31,0,0c1-1.25,1.91-2.5,2.85-3.76.47-.64.9-1.32,1.35-2h0l.85-1.08h0v0l.2-.21h0c.47-.6,1-1.19,1.41-1.81s1-1.43,1.46-2.15h0l.21-.29h0v0h0l.33-.45c-.52-.43-1-.78-1.48-1.21-2.1-2.09-4.17-4.2-6.27-6.3s-4-3.89-5.92-5.86c-2.3-2.3-4.57-4.63-6.88-6.93a.61.61,0,0,0-.21-.12c-.05-.13-.1-.26-.18-.45l-4,3.1h0c-1.08.79-2.18,1.56-3.25,2.36-1.27,1-2.53,1.95-3.79,2.93l0,0-1.75,1.32h0L173.11,23l-.18.09-1-.43a6.19,6.19,0,0,0-1.37-.6l0,0h0l-.8-.34a3.37,3.37,0,0,0-.59-.32c-.69-.28-1.38-.54-2.07-.81l-.71-.3h0l-1.77-.67v0l-1.19-.52a4,4,0,0,1-.15-.5c-.32-2.31-.64-4.61-1-6.92-.24-1.63-.51-3.26-.76-4.89,0-.09,0-.18,0-.27h0c-.24-2.16-.51-4.31-.94-6.44h-.05V0H131.05c-.1.41-.22.78-.28,1.17-.57,3.87-1.14,7.74-1.68,11.61-.28,2-.52,4-.77,6l0,.2-1.19.51-6.27,2.57h0l-2.3,1-.94-.52-.31-.2h0l-.19-.09h0l-.31-.16a1.21,1.21,0,0,0,0,.14l-.32-.08.44-.11-2.12-1.56a1,1,0,0,0-.66-.51l-.72-.58v0l-1.77-1.33h0L107.43,15h0l-1.09-.88h0l-1.77-1.33h0L103,11.5l-2.1,2.2h0l-.44.44h0l-1.33,1.32h0L97.77,17a6.85,6.85,0,0,0-.86.64c-1,1-2.06,2.06-3.09,3.1h0l-.44.44h0l-1.33,1.32h0l-5.28,5.28h0l-.44.44h0L85,29.52h0l-3,3,1,1.27L85,36.4l.05,0,0,.06,1.74,2.18h0l.15.21L87,39h0l0,0,.84,1.16v.12h0l1.16,1.46,3,3.9h0l.26.36h0l0,0,.84,1.17h0l0,0v.18h0l.39.64,0,.09-.44,1h0C92.74,50,92.32,51,91.9,52a1.91,1.91,0,0,0-.16.32c0,.09-.07.18-.1.27l-2.25,5.15L70.63,60.42c0,.57-.08,1-.08,1.43q0,4.75,0,9.49v2.58q0,7.41,0,14.81A10.31,10.31,0,0,0,70.71,90h.07a.11.11,0,0,1,0,0c6.21,1,12.49,1.76,18.7,2.74.5,1.23,1,2.42,1.49,3.61l.11.28h0l2.43,5.85-.6,1h0l-1.12,1.56h0l-1.08,1.31h0c-1,1.25-1.91,2.49-2.84,3.75-.48.64-.91,1.32-1.36,2h0l-.85,1.08h0v.22h-.23v0c-.47.6-1,1.18-1.4,1.8s-1,1.43-1.47,2.15h0l-.21.3h0v0l-.33.45c.52.42,1,.77,1.48,1.2,2.1,2.09,4.17,4.21,6.27,6.3s4,3.9,5.92,5.86c2.3,2.31,4.58,4.63,6.88,6.93a.62.62,0,0,0,.21.13l.18.45,4-3.11h0c1.08-.78,2.18-1.55,3.25-2.36,1.28-1,2.53-2,3.79-2.92h0l1.75-1.31h0l2.65-1.84.18-.09,1,.43a6.7,6.7,0,0,0,1.37.6l0,0h0l.8.34a3.37,3.37,0,0,0,.59.32l2.08.8.71.3h0l1.77.67h0l1.19.52a4,4,0,0,1,.15.49c.33,2.31.64,4.62,1,6.92.23,1.63.5,3.26.75,4.89a2.7,2.7,0,0,1,0,.28h0c.23,2.16.5,4.31.93,6.44h0l0,.1h29.4c.1-.4.22-.78.28-1.16.57-3.87,1.14-7.74,1.68-11.61.29-2,.52-4,.77-6l0-.2,1.19-.5,6.27-2.58h0l2.3-1,.94.52.31.19h0l.19.1h0l.31.16a.78.78,0,0,0,0-.14l.32.08-.44.12,2.12,1.55a1,1,0,0,0,.66.51l.73.58h0l1.77,1.33h0l4.19,3.09h0l1.1.87h0l1.77,1.33h0l1.64,1.32,2.1-2.19h0l.43-.44h0l1.33-1.32h0l1.32-1.54a7.93,7.93,0,0,0,.86-.63c1-1,2.06-2.07,3.09-3.1h0l.43-.43h0l1.32-1.32h0c1.75-1.76,3.51-3.51,5.27-5.27h0l.43-.43h0l1.32-1.32h0c1-1,1.94-2,3-3l-1-1.27-1.95-2.64-.05,0,0,0-1.73-2.18h0l-.15-.21-.11-.15h0l0,0-.84-1.15v-.13h0l-1.17-1.46-3-3.9h0l-.26-.36h0l0,0-.84-1.16v0l0,.05v-.18h0l-.4-.65,0-.09.44-1h0c.42-1,.84-1.93,1.27-2.9,0-.11.11-.22.15-.33s.07-.18.11-.26l2.24-5.16,18.76-2.71c0-.57.09-1,.09-1.43V76.43Zm-47.66,26a1.05,1.05,0,0,0-.26.13l-4.32,3.81-3.3,2.21h0c-.69.33-1.39.64-2.06,1a37,37,0,0,1-9.73,3.5,1.88,1.88,0,0,0-.3.12h0a59.23,59.23,0,0,1-7.53.72,39.41,39.41,0,0,1-13.64-2.46c-.3-.11-.6-.21-.91-.3a33.25,33.25,0,0,1-3-1.42l-1-.51-1.13-.65v0l-.45-.24v0l-.19-.1c-.83-.56-1.66-1.1-2.45-1.71-1.29-1-2.51-2.1-3.77-3.16h0l-.63-.63-.07,0h0v-.06l-.51-.51q-1.8-2.1-3.61-4.18h0l-.61-.81-2.08-3.56c-.15-.25-.3-.5-.44-.75s-.41-.8-.6-1.21c-.75-2-1.56-4-2.19-6a36,36,0,0,1-1.27-14.22,37.61,37.61,0,0,1,2.9-11.32c.13-.3.2-.62.31-.94h0l2.43-4.4h0l.45-.67h0q1.32-1.87,2.65-3.74h0l2.11-2.32.12-.11a1.05,1.05,0,0,0,.26-.13l4.32-3.81,3.3-2.21h0c.69-.34,1.39-.65,2.06-1a36.65,36.65,0,0,1,9.73-3.5,1.14,1.14,0,0,0,.3-.13v0a55.79,55.79,0,0,1,7.53-.72,39.18,39.18,0,0,1,13.64,2.46c.3.11.61.2.91.29,1,.42,2,.9,3,1.42.34.18.67.35,1,.51l1.13.65h0l.45.23h0l.19.09c.83.56,1.66,1.1,2.45,1.72,1.29,1,2.52,2.1,3.77,3.15h0l.64.63h.06v.06l.51.51,3.61,4.17h0l.6.81,2.09,3.57.43.74c.21.4.41.81.6,1.21.75,2,1.56,4,2.2,6A35.94,35.94,0,0,1,184.22,79a37.61,37.61,0,0,1-2.9,11.32c-.12.3-.2.62-.3.93h0l-2.43,4.41v0l-.45.68,0,0L175.53,100h0c-.71.77-1.41,1.54-2.11,2.32ZM114.67,20.72h0Zm62.17,109.07h0Z"/><path class="cls-1" d="M83,180.1v0h0Z"/><polygon class="cls-1" points="136.85 199.64 136.85 199.64 136.84 199.65 136.85 199.64"/><polygon class="cls-1" points="103.69 213.92 103.68 213.92 103.67 213.93 103.69 213.92"/><path class="cls-1" d="M77.09,134.18h0v0Z"/><path class="cls-1" d="M52.94,174.81h0v0h0Z"/><path class="cls-1" d="M69.4,103.66l-.2.19h.2Z"/><path class="cls-1" d="M69.4,103.64v0Z"/><path class="cls-1" d="M69.2,103.85h0v0Z"/><path class="cls-1" d="M66.57,106.05h0v0h0Z"/><path class="cls-1" d="M77.3,134h0Z"/><polygon class="cls-1" points="77.1 133.96 77.1 133.95 77.09 133.96 77.09 133.96 77.1 133.96"/><path class="cls-1" d="M77.1,134.16l.2-.2h-.2Z"/><path class="cls-1" d="M76.22,135.28h0v0h0Z"/><path class="cls-1" d="M46.35,181.62h0v0h0Z"/><path class="cls-1" d="M46.29,181.7s0,.08,0,.12v-.18S46.29,181.68,46.29,181.7Z"/><path class="cls-4" d="M157.67,160.07a20.46,20.46,0,0,0,.36-3.16l-6.83,0a5.27,5.27,0,0,0-.57,0c-6.58,0-13.17,0-19.76,0-.43,0-.85,0-1.18.05-.57,2.47-1.1,4.81-1.64,7.15h0c-.32.8-.58,1.62-1,2.39-.75,1.56-1.56,3.09-2.35,4.64v0c-.44.67-.88,1.33-1.33,2h0c-.69.74-1.35,1.51-2.07,2.21-1.13,1.12-2.29,2.2-3.44,3.29h0l-1.33.89h0l-3.09,2h0l-2.41,1.11h0l-.72.25a30.5,30.5,0,0,1-10.35,2.05A29.62,29.62,0,0,1,86.7,182c-1.25-.59-2.45-1.29-3.67-1.94v.2l-.43-.21H83l-.41-.2v0h0l-2.7-2.18c-.48-.38-1-.74-1.46-1.12h0l-.66-.66-2.41-2.84h0c-.64-1-1.28-2-1.93-3l-1.16-1.81h0c-.14-.37-.25-.76-.41-1.12a29.49,29.49,0,0,1-2.15-17.95c.32-1.64.82-3.24,1.24-4.87h0c.83-1.69,1.64-3.39,2.5-5.06.43-.83,1-1.61,1.46-2.41l.42-.44h0l.66-.87h0v0h0l-.2-.21H76v.2l.2-.2H76v-.21h.22v.2l.2-.2h0l.65-.86-.15-.11.15-.11c0-.14,0-.28,0-.41l.21.4,2.2-2.18.87-.67h0v0l.21-.2h-.21v-.21l.21.21h0l1.62-1.09,1.67-1.16-1.54-1.27h0l-1.77-1.77h0l-1.76-1.76c-.43-.49-.82-1-1.28-1.47-.72-.71-1.49-1.37-2.24-2-.21-.27-.44-.53-.63-.81s-.53-.79-.79-1.18l3-4.12H77a1.34,1.34,0,0,0,.07-.18l1.18-1.6,0,0a2,2,0,0,0,.36-.55l1.93-2.61-5-4.7-2-1.86v0l-1.33-1.33L71,102.54h0v0l-.2.21h0l-1.09.88v0h0l-.23.22,0,0h0v0l-.2.21h0v-.2l-.2.2h0l-2.19,1.75h0v0l-.2.2h.2v0l-.21.19,0-.19c-.36.29-.72.58-1.09.86h0c-.24.15-.5.27-.73.44-.86.65-1.7,1.32-2.55,2h0v0l-.2.2h0l-.44.43h0L60,111.11h0l-.23.23h0l-.42.19,0,0-.05,0-.42.43h0v0l-.21.2h0v0l-1.09.85h0a31.7,31.7,0,0,0-3.39,2.59c.44.68.81,1.26,1.19,1.83h0a5.37,5.37,0,0,0,.31.69l5.19,9c.27.47.51,1,.76,1.45l-1.43,2.5h0c-.29.51-.58,1-.88,1.53h0c-.22.44-.44.89-.67,1.33h0l-.23.45h0l-.89,1.48-1.69.06h0L51.9,136h0a12.71,12.71,0,0,0-1.28,0l-1.64,0v0l-1.55.06h0l-4.86.16c-.92,7.63-1.82,15.12-2.74,22.74l14.46,3.94c.11.42.19.77.28,1.11a30.4,30.4,0,0,0,1.88,6.18v0c0,.25,0,.5,0,.62l-1.14,1.58a8.61,8.61,0,0,0-2.4,2.41l.2,0-.2.2h0v-.2l-.21.2h0l-1.33,1.32h0c-1.6,1.68-3.21,3.36-4.81,5v0l-.21.2h.2v0l-.2.21,0,0v0h0l.65.89v0l.44.66.09-.16-.08.17q3,3.83,6,7.66c.53.68,1.11,1.33,1.67,2h0L58,196.78h0l.21.21v0h0c.68.93,1.36,1.86,2.11,2.87l2.48-1.54h0l3.52-2h0l3.51-2h0v0l.21-.21h0l.44-.21h0l2.81-1.51,7.22,4.08c0,.34.09.77.1,1.21q.14,6.24.25,12.49c0,.39.07.77.11,1.23l4.35.51c5.62.69,11.23,1.4,16.86,2.08a8.33,8.33,0,0,0,1.48-.11,7.75,7.75,0,0,0,.33-.79q1.56-5.77,3.11-11.54c.17-.63.37-1.25.54-1.83l8-2.21c1.29,1.24,2.57,2.49,3.87,3.72.31.29.68.53,1,.79h0l.65.66c.06.13.13.26.19.4h.08v.08l.4.18h0l.2.2v0h0l4.27,4.31,2.09-1.68h0v0h0l-.2-.21h.2v.2l.21-.2-.2,0v-.19l.21.2h0l.38-.16.1-.11c.28-.27.56-.54.83-.82l.87-.65h0l.9-.68v0l2-1.55h0l1.31-1.08h0l1.77-1.34c.15-.14.29-.29.43-.43h0l.65-.45h0v0l.2-.2h0c1-.76,2.05-1.51,3.06-2.28a2.61,2.61,0,0,0,.46-.57,10.3,10.3,0,0,0,2.85-2.06l-1.75-3h0l-5.05-8.79h0l-.43-.66h0l-.23-.45h0c.15-.29.3-.59.44-.88h0l.45-.67h0l.67-1.11h0c.08-.15.16-.3.23-.45h0c.79-1.39,1.57-2.78,2.36-4.19,1.9-.07,3.76-.17,5.62-.21,2.52-.05,5-.05,7.57-.1.54,0,1.07-.1,1.7-.16.61-3.58.89-7.1,1.37-10.68h0ZM59.75,111.33l.21-.21.07.28Zm15.6,24.15,0,0,0,0Zm.61-.43H75.8A.15.15,0,0,1,76,135.05Zm-.19,0v.2h-.22l0,0,0,0Zm-1.13-30.36,0,0,0,0Zm0,0Zm-10.06,3.55v-.19l.14.09Zm1.75,87.84v-.15A.16.16,0,0,1,66.33,196.08Zm55-20.13-.14-.13.25-.1Zm7.13,29.83h-.17A.17.17,0,0,1,128.47,205.78Zm14.3-15.09v.79l-.17,0C142.65,191.2,142.71,191,142.77,190.69Z"/><path class="cls-1" d="M16.47,42.79h0Z"/><path class="cls-5" d="M86.34,48.89a18.39,18.39,0,0,0-2-2.81h0L83,44.34v0h0l-.2-.2v0l-.2-.43-.16.14.13-.16-3.06-3.95h0c-.14-.22-.29-.43-.44-.65h0l-.42.2,0-.2-4.16,3.06h0l-2,1.55h0l-.87.66h0a1.22,1.22,0,0,1-1.31,0v0h0l-.41-.2v0h0l-5.56-2.4c-.06-.26-.15-.53-.19-.82q-.78-5.64-1.58-11.28a7.44,7.44,0,0,0-.29-1H41.92C41.27,33,40.63,37.38,40,41.75c-.56.22-1,.41-1.5.61L36,43.45h0l-2.86,1.13L32,43.75,29.42,41.9h0L29,41.48l-.05,0,0,0-.42-.22h0l-4.62-3.5v0h0l-.2-.2v0l0,0-.43-.23h0c-.24-.2-.49-.39-.76-.6l-.35.38h0l-1.77,1.77h0c-.37.36-.74.73-1.1,1.1h0L18.23,41h0l-.21.21h.22a1.55,1.55,0,0,0,0,.22H18l-.21.2v-.19l-1.31,1.3h.2l-.2.21h0l-.21.21h0v0h0c-.07.08-.15.15-.22.22l-.11.15-.11-.15-2.43,2.42h0l-.45.45v0l-.66.67h0l-1.1,1.1h0l-.2.21h.2v0l-.2.2h0v0l-.21.2v-.19L9.44,49.81h0c-.37.36-.74.72-1.1,1.09h0c0,.17-.09.39,0,.5.87,1.17,1.76,2.32,2.65,3.47h0c.73,1,1.45,2.06,2.2,3.06a7.47,7.47,0,0,0,.88.9l.23.43h0l.42.64v0h0L16,61.75l-2.84,6.84-6.46,1A66.17,66.17,0,0,0,0,70.6c0,1.77,0,3.45,0,5.12v5c0,1.72,0,3.44,0,5.16s-.09,3.33.07,5c4.46.74,8.81,1.21,13,1.95L16,99.68c-.19.28-.39.62-.62.95l-1.52,2.14v0c-.71.92-1.45,1.81-2.14,2.74-1.06,1.42-2.1,2.87-3.14,4.3-.27.25-.68.46-.21.88h0c.36.37.73.73,1.1,1.1.58.59,1.17,1.18,1.76,1.76h0c.58.59,1.17,1.17,1.76,1.75v0h0l.21.2v0h0l.43.43h0l1.1,1.09v0h0l.2.2v0h0l1.52,1.53h0l.2.21v0h0l.42.44h0c.36.36.72.73,1.09,1.09l.65.66h0l1.11,1.1,0,0,0,0,1.76,1.75,0,0h0l.2.2v0h0l.59.52L24.81,123h0l2.63-2h0l.22-.21h-.22l.21-.2v.2l1.55-1.09h0l4-2.84c.36.16.68.31,1,.45l3.11,1.29h0L40,119.7c.49,3.36,1,6.74,1.48,10.2.94-.05,1.73-.11,2.53-.12,2.88,0,5.77-.08,8.66-.09a1.34,1.34,0,0,0,1.52-1.21,16.41,16.41,0,0,0-1.92-3.32h0l-1.11-2h0l-2-3.52h0l-1.53-2.63h0l-.45-.68h0c-.38-.77-.77-1.54-1.19-2.38l.94-.79,2-1.65h0L51,110h0l.88-.66h0L54,107.61a25.83,25.83,0,0,1-9.57-1.14c-1.82-.6-3.56-1.44-5.34-2.18h0l-.45-.23h0L36,102.31l0,0-.89-.68v0l-1.33-1.12h0l-.66-.64h0l-.2-.2v.2h0l-.22-.22,0,0v0h0l-.2-.2v0h.2l-.2-.2v0h0l-.43-.44-.88-1.1h0L29.87,96h0L26.79,90h0c-.09-.31-.16-.63-.26-1a26.91,26.91,0,0,1-.2-16c.1-.35.16-.71.23-1.07h0c.22-.51.44-1,.67-1.53h0q1.55-2.74,3.08-5.49h0a33.76,33.76,0,0,1,5.07-5.28h0l1.1-.87h0c1.69-.94,3.33-2,5.08-2.79A24.71,24.71,0,0,1,52.3,53.81a26.49,26.49,0,0,1,11.25,2.57,4.68,4.68,0,0,0,.65.25c.06-.53.11-1,.18-1.59,5.64-.9,11.29-1.6,17-2.48h0l.33,0h0l3.3-.62.27-.54h0Zm-76.7.94-.2.19v-.19ZM14.8,95.22v-.07l0,0ZM32,99l-.1-.14h.19ZM16.21,62.77h-.15A.14.14,0,0,1,16.21,62.77Zm.05-19.55ZM26.55,72c0-.09,0-.06,0,0Zm0,0h0C26.51,71.9,26.49,71.85,26.55,72ZM78.81,39.82Zm0,0h0v0Zm0,0s0,.06,0,0Zm.66,0v0Zm0,.05h0Z"/><polygon class="cls-1" points="18.23 120.56 18.22 120.55 18.21 120.55 18.23 120.56"/><path class="cls-1" d="M54,107.59l0,0h0Z"/><polygon class="cls-1" points="18 41.25 18 41.25 18.01 41.25 18 41.25"/><polygon class="cls-1" points="18 41.25 18 41.25 18 41.25 18 41.25"/><path class="cls-1" d="M18,41.25l-.2.21H18Z"/><path class="cls-1" d="M18,41.46v0h0l0,0Z"/><path class="cls-1" d="M17.8,41.46h0v0h0Z"/><path class="cls-1" d="M16.46,42.8l-.2.2h.2Z"/><path class="cls-1" d="M16.26,43h0v0h0Z"/><path class="cls-1" d="M16.24,43l-.2.2h.2Z"/><path class="cls-1" d="M16,43.22h0v0h0Z"/><path class="cls-1" d="M16,43.24l-.2.2H16Z"/><path class="cls-1" d="M15.82,43.44h0Z"/><path class="cls-1" d="M16,43.44v0h0Z"/><path class="cls-1" d="M32.93,99.68l-.2-.2v.2Z"/><path class="cls-1" d="M32.73,99.48v0h0Z"/><path class="cls-1" d="M33,99.7v0h0Z"/><polygon class="cls-1" points="27.67 120.78 27.67 120.78 27.67 120.77 27.67 120.78 27.67 120.78"/><path class="cls-6" d="M962.72,299V685.5H1062.9a21,21,0,0,0,21-21V420.15A121.2,121.2,0,0,0,962.72,299Z"/><path class="cls-6" d="M209.51,404.29v2.08c34.57,18.94,64,24.1,64,24.1v-77a118.66,118.66,0,0,1-42.7-17.79A120.65,120.65,0,0,0,209.51,404.29Z"/><polygon class="cls-2" points="972.27 368.58 1002.79 399.49 971.88 430.01 962.72 420.74 984.36 399.37 963 377.74 972.27 368.58"/><polygon class="cls-2" points="953.84 368.46 922.93 398.98 953.45 429.89 962.72 420.74 941.36 399.1 963 377.74 953.84 368.46"/><path class="cls-7" d="M658,299V685.5H758.21a21,21,0,0,0,21-21V420.15A121.2,121.2,0,0,0,658,299Z"/><path class="cls-8" d="M658,387.52a13.53,13.53,0,0,1,9.84-13.3,22.8,22.8,0,0,1,5.63-.51c5-.26,9,1.84,12.08,5.61.64.76.77.07,1-.23A16.54,16.54,0,0,1,710,377.66c3.84,3.6,4.67,8,3.55,13-1.51,6.67-5.52,11.8-10.43,16.29a42.64,42.64,0,0,1-14.09,8.87,8.76,8.76,0,0,1-6.78-.26c-9.59-4.19-17.28-10.54-22.13-20A18.21,18.21,0,0,1,658,387.52Z"/><text class="cls-9" transform="translate(599.18 554.81)">SITE</text><text class="cls-10" transform="translate(585 412.16)">I</text><text class="cls-9" transform="translate(585 505.95)">&lt;WIT&gt;</text><path class="cls-7" d="M751.51,163A98.92,98.92,0,0,0,652.59,64.1V261.94A98.92,98.92,0,0,0,751.51,163Z"/><path class="cls-7" d="M1061.92,163A98.92,98.92,0,0,0,963,64.1V261.94A98.92,98.92,0,0,0,1061.92,163Z"/><path class="cls-1" d="M1063.51,114.38a100.92,100.92,0,0,0-201.3,0H847.76v14.7h230.47v-14.7Z"/><path class="cls-4" d="M962.86,6.46a131.52,131.52,0,0,0-29.57,3.35V115.19h59.14V9.81A131.52,131.52,0,0,0,962.86,6.46Z"/><circle class="cls-2" cx="347.06" cy="163.02" r="98.92"/><path class="cls-3" d="M346.5,294.63c-67,.23-120.78,55.53-120.78,122.52v243a21,21,0,0,0,21,21H447.11a21,21,0,0,0,21-21V415.84A121.2,121.2,0,0,0,346.5,294.63Z"/><path class="cls-6" d="M347.06,294.63V681.18H447.24a21,21,0,0,0,21-21V415.83A121.2,121.2,0,0,0,347.06,294.63Z"/><polygon class="cls-2" points="356.34 364.26 386.86 395.17 355.94 425.69 346.79 416.42 368.43 395.06 347.06 373.42 356.34 364.26"/><polygon class="cls-2" points="337.91 364.14 307 394.66 337.52 425.57 346.79 416.42 325.43 394.78 347.06 373.42 337.91 364.14"/><path class="cls-7" d="M446,163A98.92,98.92,0,0,0,347.06,64.1V261.94A98.92,98.92,0,0,0,446,163Z"/></g></g></svg>